<mxfile host="app.diagrams.net" agent="Mozilla/5.0 (Windows NT 10.0; Win64; x64) AppleWebKit/537.36 (KHTML, like Gecko) Chrome/127.0.0.0 Safari/537.36" version="24.7.7">
  <diagram name="Page-1" id="II-kgYRQ3GTq3_odwu_w">
    <mxGraphModel dx="1714" dy="923" grid="1" gridSize="10" guides="1" tooltips="1" connect="1" arrows="1" fold="1" page="1" pageScale="1" pageWidth="827" pageHeight="1169" math="0" shadow="0">
      <root>
        <mxCell id="0" />
        <mxCell id="1" parent="0" />
        <UserObject label="" plantUmlData="{&#xa;  &quot;data&quot;: &quot;@startuml\npackage \&quot;Application Web\&quot; {\n[Frontend] --&gt; [Backend]\n[Backend] --&gt; [Database]\n[Backend] --&gt; [API]\n}\n@enduml&quot;,&#xa;  &quot;format&quot;: &quot;svg&quot;&#xa;}" id="r1eFtCDx-ixWv4gbX7kA-4">
          <mxCell style="shape=image;noLabel=1;verticalAlign=top;aspect=fixed;imageAspect=0;image=data:image/svg+xml,PD94bWwgdmVyc2lvbj0iMS4wIiBlbmNvZGluZz0idXMtYXNjaWkiIHN0YW5kYWxvbmU9Im5vIj8+PHN2ZyB4bWxucz0iaHR0cDovL3d3dy53My5vcmcvMjAwMC9zdmciIHhtbG5zOnhsaW5rPSJodHRwOi8vd3d3LnczLm9yZy8xOTk5L3hsaW5rIiBjb250ZW50U3R5bGVUeXBlPSJ0ZXh0L2NzcyIgaGVpZ2h0PSIzMTdweCIgcHJlc2VydmVBc3BlY3RSYXRpbz0ibm9uZSIgc3R5bGU9IndpZHRoOjIzOHB4O2hlaWdodDozMTdweDtiYWNrZ3JvdW5kOiNGRkZGRkY7IiB2ZXJzaW9uPSIxLjEiIHZpZXdCb3g9IjAgMCAyMzggMzE3IiB3aWR0aD0iMjM4cHgiIHpvb21BbmRQYW49Im1hZ25pZnkiPjxkZWZzLz48Zz48IS0tY2x1c3RlciBBcHBsaWNhdGlvbiBXZWItLT48ZyBpZD0iY2x1c3Rlcl9BcHBsaWNhdGlvbiBXZWIiPjxwYXRoIGQ9Ik04LjUsNiBMMTE0LjUsNiBBMy43NSwzLjc1IDAgMCAxIDExNyw4LjUgTDEyNCwyNi45ODQ0IEwyMjguNSwyNi45ODQ0IEEyLjUsMi41IDAgMCAxIDIzMSwyOS40ODQ0IEwyMzEsMzA3LjUgQTIuNSwyLjUgMCAwIDEgMjI4LjUsMzEwIEw4LjUsMzEwIEEyLjUsMi41IDAgMCAxIDYsMzA3LjUgTDYsOC41IEEyLjUsMi41IDAgMCAxIDguNSw2ICIgZmlsbD0ibm9uZSIgc3R5bGU9InN0cm9rZTojMDAwMDAwO3N0cm9rZS13aWR0aDoxLjU7Ii8+PGxpbmUgc3R5bGU9InN0cm9rZTojMDAwMDAwO3N0cm9rZS13aWR0aDoxLjU7IiB4MT0iNiIgeDI9IjEyNCIgeTE9IjI2Ljk4NDQiIHkyPSIyNi45ODQ0Ii8+PHRleHQgZmlsbD0iIzAwMDAwMCIgZm9udC1mYW1pbHk9InNhbnMtc2VyaWYiIGZvbnQtc2l6ZT0iMTQiIGZvbnQtd2VpZ2h0PSJib2xkIiBsZW5ndGhBZGp1c3Q9InNwYWNpbmciIHRleHRMZW5ndGg9IjEwNSIgeD0iMTAiIHk9IjIxLjIzNDQiPkFwcGxpY2F0aW9uIFdlYjwvdGV4dD48L2c+PCEtLWVudGl0eSBGcm9udGVuZC0tPjxnIGlkPSJlbGVtX0Zyb250ZW5kIj48cmVjdCBmaWxsPSIjRjFGMUYxIiBoZWlnaHQ9IjQ0Ljk4NDQiIHJ4PSIyLjUiIHJ5PSIyLjUiIHN0eWxlPSJzdHJva2U6IzE4MTgxODtzdHJva2Utd2lkdGg6MC41OyIgd2lkdGg9Ijk2IiB4PSI3MCIgeT0iMzkiLz48cmVjdCBmaWxsPSIjRjFGMUYxIiBoZWlnaHQ9IjEwIiBzdHlsZT0ic3Ryb2tlOiMxODE4MTg7c3Ryb2tlLXdpZHRoOjAuNTsiIHdpZHRoPSIxNSIgeD0iMTQ2IiB5PSI0NCIvPjxyZWN0IGZpbGw9IiNGMUYxRjEiIGhlaWdodD0iMiIgc3R5bGU9InN0cm9rZTojMTgxODE4O3N0cm9rZS13aWR0aDowLjU7IiB3aWR0aD0iNCIgeD0iMTQ0IiB5PSI0NiIvPjxyZWN0IGZpbGw9IiNGMUYxRjEiIGhlaWdodD0iMiIgc3R5bGU9InN0cm9rZTojMTgxODE4O3N0cm9rZS13aWR0aDowLjU7IiB3aWR0aD0iNCIgeD0iMTQ0IiB5PSI1MCIvPjx0ZXh0IGZpbGw9IiMwMDAwMDAiIGZvbnQtZmFtaWx5PSJzYW5zLXNlcmlmIiBmb250LXNpemU9IjE0IiBsZW5ndGhBZGp1c3Q9InNwYWNpbmciIHRleHRMZW5ndGg9IjU2IiB4PSI4NSIgeT0iNzIuMjM0NCI+RnJvbnRlbmQ8L3RleHQ+PC9nPjwhLS1lbnRpdHkgQmFja2VuZC0tPjxnIGlkPSJlbGVtX0JhY2tlbmQiPjxyZWN0IGZpbGw9IiNGMUYxRjEiIGhlaWdodD0iNDQuOTg0NCIgcng9IjIuNSIgcnk9IjIuNSIgc3R5bGU9InN0cm9rZTojMTgxODE4O3N0cm9rZS13aWR0aDowLjU7IiB3aWR0aD0iODkiIHg9IjczLjUiIHk9IjE0NCIvPjxyZWN0IGZpbGw9IiNGMUYxRjEiIGhlaWdodD0iMTAiIHN0eWxlPSJzdHJva2U6IzE4MTgxODtzdHJva2Utd2lkdGg6MC41OyIgd2lkdGg9IjE1IiB4PSIxNDIuNSIgeT0iMTQ5Ii8+PHJlY3QgZmlsbD0iI0YxRjFGMSIgaGVpZ2h0PSIyIiBzdHlsZT0ic3Ryb2tlOiMxODE4MTg7c3Ryb2tlLXdpZHRoOjAuNTsiIHdpZHRoPSI0IiB4PSIxNDAuNSIgeT0iMTUxIi8+PHJlY3QgZmlsbD0iI0YxRjFGMSIgaGVpZ2h0PSIyIiBzdHlsZT0ic3Ryb2tlOiMxODE4MTg7c3Ryb2tlLXdpZHRoOjAuNTsiIHdpZHRoPSI0IiB4PSIxNDAuNSIgeT0iMTU1Ii8+PHRleHQgZmlsbD0iIzAwMDAwMCIgZm9udC1mYW1pbHk9InNhbnMtc2VyaWYiIGZvbnQtc2l6ZT0iMTQiIGxlbmd0aEFkanVzdD0ic3BhY2luZyIgdGV4dExlbmd0aD0iNDkiIHg9Ijg4LjUiIHk9IjE3Ny4yMzQ0Ij5CYWNrZW5kPC90ZXh0PjwvZz48IS0tZW50aXR5IERhdGFiYXNlLS0+PGcgaWQ9ImVsZW1fRGF0YWJhc2UiPjxyZWN0IGZpbGw9IiNGMUYxRjEiIGhlaWdodD0iNDQuOTg0NCIgcng9IjIuNSIgcnk9IjIuNSIgc3R5bGU9InN0cm9rZTojMTgxODE4O3N0cm9rZS13aWR0aDowLjU7IiB3aWR0aD0iOTYiIHg9IjIyIiB5PSIyNDkiLz48cmVjdCBmaWxsPSIjRjFGMUYxIiBoZWlnaHQ9IjEwIiBzdHlsZT0ic3Ryb2tlOiMxODE4MTg7c3Ryb2tlLXdpZHRoOjAuNTsiIHdpZHRoPSIxNSIgeD0iOTgiIHk9IjI1NCIvPjxyZWN0IGZpbGw9IiNGMUYxRjEiIGhlaWdodD0iMiIgc3R5bGU9InN0cm9rZTojMTgxODE4O3N0cm9rZS13aWR0aDowLjU7IiB3aWR0aD0iNCIgeD0iOTYiIHk9IjI1NiIvPjxyZWN0IGZpbGw9IiNGMUYxRjEiIGhlaWdodD0iMiIgc3R5bGU9InN0cm9rZTojMTgxODE4O3N0cm9rZS13aWR0aDowLjU7IiB3aWR0aD0iNCIgeD0iOTYiIHk9IjI2MCIvPjx0ZXh0IGZpbGw9IiMwMDAwMDAiIGZvbnQtZmFtaWx5PSJzYW5zLXNlcmlmIiBmb250LXNpemU9IjE0IiBsZW5ndGhBZGp1c3Q9InNwYWNpbmciIHRleHRMZW5ndGg9IjU2IiB4PSIzNyIgeT0iMjgyLjIzNDQiPkRhdGFiYXNlPC90ZXh0PjwvZz48IS0tZW50aXR5IEFQSS0tPjxnIGlkPSJlbGVtX0FQSSI+PHJlY3QgZmlsbD0iI0YxRjFGMSIgaGVpZ2h0PSI0NC45ODQ0IiByeD0iMi41IiByeT0iMi41IiBzdHlsZT0ic3Ryb2tlOiMxODE4MTg7c3Ryb2tlLXdpZHRoOjAuNTsiIHdpZHRoPSI2MSIgeD0iMTUzLjUiIHk9IjI0OSIvPjxyZWN0IGZpbGw9IiNGMUYxRjEiIGhlaWdodD0iMTAiIHN0eWxlPSJzdHJva2U6IzE4MTgxODtzdHJva2Utd2lkdGg6MC41OyIgd2lkdGg9IjE1IiB4PSIxOTQuNSIgeT0iMjU0Ii8+PHJlY3QgZmlsbD0iI0YxRjFGMSIgaGVpZ2h0PSIyIiBzdHlsZT0ic3Ryb2tlOiMxODE4MTg7c3Ryb2tlLXdpZHRoOjAuNTsiIHdpZHRoPSI0IiB4PSIxOTIuNSIgeT0iMjU2Ii8+PHJlY3QgZmlsbD0iI0YxRjFGMSIgaGVpZ2h0PSIyIiBzdHlsZT0ic3Ryb2tlOiMxODE4MTg7c3Ryb2tlLXdpZHRoOjAuNTsiIHdpZHRoPSI0IiB4PSIxOTIuNSIgeT0iMjYwIi8+PHRleHQgZmlsbD0iIzAwMDAwMCIgZm9udC1mYW1pbHk9InNhbnMtc2VyaWYiIGZvbnQtc2l6ZT0iMTQiIGxlbmd0aEFkanVzdD0ic3BhY2luZyIgdGV4dExlbmd0aD0iMjEiIHg9IjE2OC41IiB5PSIyODIuMjM0NCI+QVBJPC90ZXh0PjwvZz48IS0tbGluayBGcm9udGVuZCB0byBCYWNrZW5kLS0+PGcgaWQ9ImxpbmtfRnJvbnRlbmRfQmFja2VuZCI+PHBhdGggZD0iTTExOCw4NC4zNCBDMTE4LDEwMS44MiAxMTgsMTIwLjIyIDExOCwxMzcuNjkgIiBmaWxsPSJub25lIiBpZD0iRnJvbnRlbmQtdG8tQmFja2VuZCIgc3R5bGU9InN0cm9rZTojMTgxODE4O3N0cm9rZS13aWR0aDoxLjA7Ii8+PHBvbHlnb24gZmlsbD0iIzE4MTgxOCIgcG9pbnRzPSIxMTgsMTQzLjY5LDEyMiwxMzQuNjksMTE4LDEzOC42OSwxMTQsMTM0LjY5LDExOCwxNDMuNjkiIHN0eWxlPSJzdHJva2U6IzE4MTgxODtzdHJva2Utd2lkdGg6MS4wOyIvPjwvZz48IS0tbGluayBCYWNrZW5kIHRvIERhdGFiYXNlLS0+PGcgaWQ9ImxpbmtfQmFja2VuZF9EYXRhYmFzZSI+PHBhdGggZD0iTTEwNy44MiwxODkuMzQgQzk5LjY3LDIwNi44MiA5MC44NDY2LDIyNS43ODI2IDgyLjY5NjYsMjQzLjI1MjYgIiBmaWxsPSJub25lIiBpZD0iQmFja2VuZC10by1EYXRhYmFzZSIgc3R5bGU9InN0cm9rZTojMTgxODE4O3N0cm9rZS13aWR0aDoxLjA7Ii8+PHBvbHlnb24gZmlsbD0iIzE4MTgxOCIgcG9pbnRzPSI4MC4xNiwyNDguNjksODcuNTg5OSwyNDIuMjI1LDgyLjI3MzksMjQ0LjE1ODgsODAuMzQsMjM4Ljg0MjgsODAuMTYsMjQ4LjY5IiBzdHlsZT0ic3Ryb2tlOiMxODE4MTg7c3Ryb2tlLXdpZHRoOjEuMDsiLz48L2c+PCEtLWxpbmsgQmFja2VuZCB0byBBUEktLT48ZyBpZD0ibGlua19CYWNrZW5kX0FQSSI+PHBhdGggZD0iTTEzMiwxODkuMzQgQzE0My4yLDIwNi44MiAxNTUuNTkzOCwyMjYuMTY3NiAxNjYuNzgzOCwyNDMuNjM3NiAiIGZpbGw9Im5vbmUiIGlkPSJCYWNrZW5kLXRvLUFQSSIgc3R5bGU9InN0cm9rZTojMTgxODE4O3N0cm9rZS13aWR0aDoxLjA7Ii8+PHBvbHlnb24gZmlsbD0iIzE4MTgxOCIgcG9pbnRzPSIxNzAuMDIsMjQ4LjY5LDE2OC41MzQsMjM4Ljk1MzksMTY3LjMyMzIsMjQ0LjQ3OTYsMTYxLjc5NzQsMjQzLjI2ODgsMTcwLjAyLDI0OC42OSIgc3R5bGU9InN0cm9rZTojMTgxODE4O3N0cm9rZS13aWR0aDoxLjA7Ii8+PC9nPjwhLS1TUkM9W0FxWENwYXZDSnJMR1NZbWVvQ2JDSllwOXBDekoyNHpES2JBZXZlZnNBeWhGQXFkREl1YkxxRE1yS3VYczBnZTV5UlpXQjhZdUlzOTlPYjlZU0lnNlg2RTBQb25OQkcwMF0tLT48L2c+PC9zdmc+;" vertex="1" parent="1">
            <mxGeometry x="40" y="20" width="238" height="317" as="geometry" />
          </mxCell>
        </UserObject>
        <UserObject label="" plantUmlData="{&#xa;  &quot;data&quot;: &quot;@startuml\nnode \&quot;Serveur Web\&quot; {\n  [Frontend]\n}\nnode \&quot;Serveur d&#39;Application\&quot; {\n  [Backend]\n}\nnode \&quot;Serveur de Base de DonnÃ©es\&quot; {\n  [Database]\n}\n[Frontend] --&gt; [Backend]\n[Backend] --&gt; [Database]\n@enduml\n&quot;,&#xa;  &quot;format&quot;: &quot;svg&quot;&#xa;}" id="r1eFtCDx-ixWv4gbX7kA-5">
          <mxCell style="shape=image;noLabel=1;verticalAlign=top;aspect=fixed;imageAspect=0;image=data:image/svg+xml,PD94bWwgdmVyc2lvbj0iMS4wIiBlbmNvZGluZz0idXMtYXNjaWkiIHN0YW5kYWxvbmU9Im5vIj8+PHN2ZyB4bWxucz0iaHR0cDovL3d3dy53My5vcmcvMjAwMC9zdmciIHhtbG5zOnhsaW5rPSJodHRwOi8vd3d3LnczLm9yZy8xOTk5L3hsaW5rIiBjb250ZW50U3R5bGVUeXBlPSJ0ZXh0L2NzcyIgaGVpZ2h0PSIzNjhweCIgcHJlc2VydmVBc3BlY3RSYXRpbz0ibm9uZSIgc3R5bGU9IndpZHRoOjI5N3B4O2hlaWdodDozNjhweDtiYWNrZ3JvdW5kOiNGRkZGRkY7IiB2ZXJzaW9uPSIxLjEiIHZpZXdCb3g9IjAgMCAyOTcgMzY4IiB3aWR0aD0iMjk3cHgiIHpvb21BbmRQYW49Im1hZ25pZnkiPjxkZWZzLz48Zz48IS0tY2x1c3RlciBTZXJ2ZXVyIFdlYi0tPjxnIGlkPSJjbHVzdGVyX1NlcnZldXIgV2ViIj48cG9seWdvbiBmaWxsPSJub25lIiBwb2ludHM9IjE2LDE2LDI2LDYsMTY5LDYsMTY5LDk1LDE1OSwxMDUsMTYsMTA1LDE2LDE2IiBzdHlsZT0ic3Ryb2tlOiMxODE4MTg7c3Ryb2tlLXdpZHRoOjEuMDsiLz48bGluZSBzdHlsZT0ic3Ryb2tlOiMxODE4MTg7c3Ryb2tlLXdpZHRoOjEuMDsiIHgxPSIxNTkiIHgyPSIxNjkiIHkxPSIxNiIgeTI9IjYiLz48bGluZSBzdHlsZT0ic3Ryb2tlOiMxODE4MTg7c3Ryb2tlLXdpZHRoOjEuMDsiIHgxPSIxNiIgeDI9IjE1OSIgeTE9IjE2IiB5Mj0iMTYiLz48bGluZSBzdHlsZT0ic3Ryb2tlOiMxODE4MTg7c3Ryb2tlLXdpZHRoOjEuMDsiIHgxPSIxNTkiIHgyPSIxNTkiIHkxPSIxNiIgeTI9IjEwNSIvPjx0ZXh0IGZpbGw9IiMwMDAwMDAiIGZvbnQtZmFtaWx5PSJzYW5zLXNlcmlmIiBmb250LXNpemU9IjE0IiBmb250LXdlaWdodD0iYm9sZCIgbGVuZ3RoQWRqdXN0PSJzcGFjaW5nIiB0ZXh0TGVuZ3RoPSI3NyIgeD0iNTAiIHk9IjMyLjIzNDQiPlNlcnZldXIgV2ViPC90ZXh0PjwvZz48IS0tY2x1c3RlciBTZXJ2ZXVyIGQnQXBwbGljYXRpb24tLT48ZyBpZD0iY2x1c3Rlcl9TZXJ2ZXVyIGQnQXBwbGljYXRpb24iPjxwb2x5Z29uIGZpbGw9Im5vbmUiIHBvaW50cz0iMjQsMTM5LDM0LDEyOSwyNDcsMTI5LDI0NywyMTgsMjM3LDIyOCwyNCwyMjgsMjQsMTM5IiBzdHlsZT0ic3Ryb2tlOiMxODE4MTg7c3Ryb2tlLXdpZHRoOjEuMDsiLz48bGluZSBzdHlsZT0ic3Ryb2tlOiMxODE4MTg7c3Ryb2tlLXdpZHRoOjEuMDsiIHgxPSIyMzciIHgyPSIyNDciIHkxPSIxMzkiIHkyPSIxMjkiLz48bGluZSBzdHlsZT0ic3Ryb2tlOiMxODE4MTg7c3Ryb2tlLXdpZHRoOjEuMDsiIHgxPSIyNCIgeDI9IjIzNyIgeTE9IjEzOSIgeTI9IjEzOSIvPjxsaW5lIHN0eWxlPSJzdHJva2U6IzE4MTgxODtzdHJva2Utd2lkdGg6MS4wOyIgeDE9IjIzNyIgeDI9IjIzNyIgeTE9IjEzOSIgeTI9IjIyOCIvPjx0ZXh0IGZpbGw9IiMwMDAwMDAiIGZvbnQtZmFtaWx5PSJzYW5zLXNlcmlmIiBmb250LXNpemU9IjE0IiBmb250LXdlaWdodD0iYm9sZCIgbGVuZ3RoQWRqdXN0PSJzcGFjaW5nIiB0ZXh0TGVuZ3RoPSIxNDciIHg9IjU4IiB5PSIxNTUuMjM0NCI+U2VydmV1ciBkJ0FwcGxpY2F0aW9uPC90ZXh0PjwvZz48IS0tY2x1c3RlciBTZXJ2ZXVyIGRlIEJhc2UgZGUgRG9ubj9lcy0tPjxnIGlkPSJjbHVzdGVyX1NlcnZldXIgZGUgQmFzZSBkZSBEb25uJiMyMzM7ZXMiPjxwb2x5Z29uIGZpbGw9Im5vbmUiIHBvaW50cz0iMjIsMjYyLDMyLDI1MiwyODAsMjUyLDI4MCwzNDEsMjcwLDM1MSwyMiwzNTEsMjIsMjYyIiBzdHlsZT0ic3Ryb2tlOiMxODE4MTg7c3Ryb2tlLXdpZHRoOjEuMDsiLz48bGluZSBzdHlsZT0ic3Ryb2tlOiMxODE4MTg7c3Ryb2tlLXdpZHRoOjEuMDsiIHgxPSIyNzAiIHgyPSIyODAiIHkxPSIyNjIiIHkyPSIyNTIiLz48bGluZSBzdHlsZT0ic3Ryb2tlOiMxODE4MTg7c3Ryb2tlLXdpZHRoOjEuMDsiIHgxPSIyMiIgeDI9IjI3MCIgeTE9IjI2MiIgeTI9IjI2MiIvPjxsaW5lIHN0eWxlPSJzdHJva2U6IzE4MTgxODtzdHJva2Utd2lkdGg6MS4wOyIgeDE9IjI3MCIgeDI9IjI3MCIgeTE9IjI2MiIgeTI9IjM1MSIvPjx0ZXh0IGZpbGw9IiMwMDAwMDAiIGZvbnQtZmFtaWx5PSJzYW5zLXNlcmlmIiBmb250LXNpemU9IjE0IiBmb250LXdlaWdodD0iYm9sZCIgbGVuZ3RoQWRqdXN0PSJzcGFjaW5nIiB0ZXh0TGVuZ3RoPSIxODIiIHg9IjU2IiB5PSIyNzguMjM0NCI+U2VydmV1ciBkZSBCYXNlIGRlIERvbm4mIzIzMztlczwvdGV4dD48L2c+PCEtLWVudGl0eSBGcm9udGVuZC0tPjxnIGlkPSJlbGVtX0Zyb250ZW5kIj48cmVjdCBmaWxsPSIjRjFGMUYxIiBoZWlnaHQ9IjQ0Ljk4NDQiIHJ4PSIyLjUiIHJ5PSIyLjUiIHN0eWxlPSJzdHJva2U6IzE4MTgxODtzdHJva2Utd2lkdGg6MC41OyIgd2lkdGg9Ijk2IiB4PSI0NCIgeT0iNDQiLz48cmVjdCBmaWxsPSIjRjFGMUYxIiBoZWlnaHQ9IjEwIiBzdHlsZT0ic3Ryb2tlOiMxODE4MTg7c3Ryb2tlLXdpZHRoOjAuNTsiIHdpZHRoPSIxNSIgeD0iMTIwIiB5PSI0OSIvPjxyZWN0IGZpbGw9IiNGMUYxRjEiIGhlaWdodD0iMiIgc3R5bGU9InN0cm9rZTojMTgxODE4O3N0cm9rZS13aWR0aDowLjU7IiB3aWR0aD0iNCIgeD0iMTE4IiB5PSI1MSIvPjxyZWN0IGZpbGw9IiNGMUYxRjEiIGhlaWdodD0iMiIgc3R5bGU9InN0cm9rZTojMTgxODE4O3N0cm9rZS13aWR0aDowLjU7IiB3aWR0aD0iNCIgeD0iMTE4IiB5PSI1NSIvPjx0ZXh0IGZpbGw9IiMwMDAwMDAiIGZvbnQtZmFtaWx5PSJzYW5zLXNlcmlmIiBmb250LXNpemU9IjE0IiBsZW5ndGhBZGp1c3Q9InNwYWNpbmciIHRleHRMZW5ndGg9IjU2IiB4PSI1OSIgeT0iNzcuMjM0NCI+RnJvbnRlbmQ8L3RleHQ+PC9nPjwhLS1lbnRpdHkgQmFja2VuZC0tPjxnIGlkPSJlbGVtX0JhY2tlbmQiPjxyZWN0IGZpbGw9IiNGMUYxRjEiIGhlaWdodD0iNDQuOTg0NCIgcng9IjIuNSIgcnk9IjIuNSIgc3R5bGU9InN0cm9rZTojMTgxODE4O3N0cm9rZS13aWR0aDowLjU7IiB3aWR0aD0iODkiIHg9IjQ3LjUiIHk9IjE2NyIvPjxyZWN0IGZpbGw9IiNGMUYxRjEiIGhlaWdodD0iMTAiIHN0eWxlPSJzdHJva2U6IzE4MTgxODtzdHJva2Utd2lkdGg6MC41OyIgd2lkdGg9IjE1IiB4PSIxMTYuNSIgeT0iMTcyIi8+PHJlY3QgZmlsbD0iI0YxRjFGMSIgaGVpZ2h0PSIyIiBzdHlsZT0ic3Ryb2tlOiMxODE4MTg7c3Ryb2tlLXdpZHRoOjAuNTsiIHdpZHRoPSI0IiB4PSIxMTQuNSIgeT0iMTc0Ii8+PHJlY3QgZmlsbD0iI0YxRjFGMSIgaGVpZ2h0PSIyIiBzdHlsZT0ic3Ryb2tlOiMxODE4MTg7c3Ryb2tlLXdpZHRoOjAuNTsiIHdpZHRoPSI0IiB4PSIxMTQuNSIgeT0iMTc4Ii8+PHRleHQgZmlsbD0iIzAwMDAwMCIgZm9udC1mYW1pbHk9InNhbnMtc2VyaWYiIGZvbnQtc2l6ZT0iMTQiIGxlbmd0aEFkanVzdD0ic3BhY2luZyIgdGV4dExlbmd0aD0iNDkiIHg9IjYyLjUiIHk9IjIwMC4yMzQ0Ij5CYWNrZW5kPC90ZXh0PjwvZz48IS0tZW50aXR5IERhdGFiYXNlLS0+PGcgaWQ9ImVsZW1fRGF0YWJhc2UiPjxyZWN0IGZpbGw9IiNGMUYxRjEiIGhlaWdodD0iNDQuOTg0NCIgcng9IjIuNSIgcnk9IjIuNSIgc3R5bGU9InN0cm9rZTojMTgxODE4O3N0cm9rZS13aWR0aDowLjU7IiB3aWR0aD0iOTYiIHg9IjQ0IiB5PSIyOTAiLz48cmVjdCBmaWxsPSIjRjFGMUYxIiBoZWlnaHQ9IjEwIiBzdHlsZT0ic3Ryb2tlOiMxODE4MTg7c3Ryb2tlLXdpZHRoOjAuNTsiIHdpZHRoPSIxNSIgeD0iMTIwIiB5PSIyOTUiLz48cmVjdCBmaWxsPSIjRjFGMUYxIiBoZWlnaHQ9IjIiIHN0eWxlPSJzdHJva2U6IzE4MTgxODtzdHJva2Utd2lkdGg6MC41OyIgd2lkdGg9IjQiIHg9IjExOCIgeT0iMjk3Ii8+PHJlY3QgZmlsbD0iI0YxRjFGMSIgaGVpZ2h0PSIyIiBzdHlsZT0ic3Ryb2tlOiMxODE4MTg7c3Ryb2tlLXdpZHRoOjAuNTsiIHdpZHRoPSI0IiB4PSIxMTgiIHk9IjMwMSIvPjx0ZXh0IGZpbGw9IiMwMDAwMDAiIGZvbnQtZmFtaWx5PSJzYW5zLXNlcmlmIiBmb250LXNpemU9IjE0IiBsZW5ndGhBZGp1c3Q9InNwYWNpbmciIHRleHRMZW5ndGg9IjU2IiB4PSI1OSIgeT0iMzIzLjIzNDQiPkRhdGFiYXNlPC90ZXh0PjwvZz48IS0tbGluayBGcm9udGVuZCB0byBCYWNrZW5kLS0+PGcgaWQ9ImxpbmtfRnJvbnRlbmRfQmFja2VuZCI+PHBhdGggZD0iTTkyLDg5LjEzIEM5MiwxMTEuMDIgOTIsMTM4LjY4IDkyLDE2MC42NSAiIGZpbGw9Im5vbmUiIGlkPSJGcm9udGVuZC10by1CYWNrZW5kIiBzdHlsZT0ic3Ryb2tlOiMxODE4MTg7c3Ryb2tlLXdpZHRoOjEuMDsiLz48cG9seWdvbiBmaWxsPSIjMTgxODE4IiBwb2ludHM9IjkyLDE2Ni42NSw5NiwxNTcuNjUsOTIsMTYxLjY1LDg4LDE1Ny42NSw5MiwxNjYuNjUiIHN0eWxlPSJzdHJva2U6IzE4MTgxODtzdHJva2Utd2lkdGg6MS4wOyIvPjwvZz48IS0tbGluayBCYWNrZW5kIHRvIERhdGFiYXNlLS0+PGcgaWQ9ImxpbmtfQmFja2VuZF9EYXRhYmFzZSI+PHBhdGggZD0iTTkyLDIxMi4xMyBDOTIsMjM0LjAyIDkyLDI2MS42OCA5MiwyODMuNjUgIiBmaWxsPSJub25lIiBpZD0iQmFja2VuZC10by1EYXRhYmFzZSIgc3R5bGU9InN0cm9rZTojMTgxODE4O3N0cm9rZS13aWR0aDoxLjA7Ii8+PHBvbHlnb24gZmlsbD0iIzE4MTgxOCIgcG9pbnRzPSI5MiwyODkuNjUsOTYsMjgwLjY1LDkyLDI4NC42NSw4OCwyODAuNjUsOTIsMjg5LjY1IiBzdHlsZT0ic3Ryb2tlOiMxODE4MTg7c3Ryb2tlLXdpZHRoOjEuMDsiLz48L2c+PCEtLVNSQz1bb3lqRklMTEcyYXVqQWFpakJMODhKcXJJS2daY0tiMjhUWWxBcG9qOXBLazl2UWhib2FESGF3QmtNNTJHYXZjU005QVBkbVRMeFBJT2Q4clRTUWcyS3M5bkFlWHNvU19CRXhtb2pIWWduSU1uOTM0OUEwTklXeDFER0xWTjNpYXVFMGlZM2pTMzAwMDBdLS0+PC9nPjwvc3ZnPg==;" vertex="1" parent="1">
            <mxGeometry x="340" y="20" width="297" height="368" as="geometry" />
          </mxCell>
        </UserObject>
        <mxCell id="r1eFtCDx-ixWv4gbX7kA-7" value="1. &lt;strong&gt;Diagramme de Composants&lt;/strong&gt;" style="text;whiteSpace=wrap;html=1;" vertex="1" parent="1">
          <mxGeometry x="50" y="337" width="210" height="40" as="geometry" />
        </mxCell>
        <mxCell id="r1eFtCDx-ixWv4gbX7kA-8" value="2. &lt;strong&gt;Diagramme de DÃ©ploiement&lt;/strong&gt;" style="text;whiteSpace=wrap;html=1;" vertex="1" parent="1">
          <mxGeometry x="360" y="388" width="200" height="40" as="geometry" />
        </mxCell>
        <mxCell id="r1eFtCDx-ixWv4gbX7kA-9" value="3. &lt;strong&gt;Diagramme d&#39;Objets&lt;/strong&gt;" style="text;whiteSpace=wrap;html=1;" vertex="1" parent="1">
          <mxGeometry x="760" y="348" width="160" height="40" as="geometry" />
        </mxCell>
        <UserObject label="" plantUmlData="{&#xa;  &quot;data&quot;: &quot;@startuml\nobject User {\n  name = \&quot;Alice\&quot;\n  email = \&quot;alice@example.com\&quot;\n}\nobject Book {\n  title = \&quot;Design Patterns\&quot;\n  author = \&quot;Gamma et al.\&quot;\n}\nobject Loan {\n  date = \&quot;2024-08-26\&quot;\n}\nUser --&gt; Loan : emprunte\nLoan --&gt; Book : concerne\n@enduml\n&quot;,&#xa;  &quot;format&quot;: &quot;svg&quot;&#xa;}" id="r1eFtCDx-ixWv4gbX7kA-10">
          <mxCell style="shape=image;noLabel=1;verticalAlign=top;aspect=fixed;imageAspect=0;image=data:image/svg+xml,PD94bWwgdmVyc2lvbj0iMS4wIiBlbmNvZGluZz0idXMtYXNjaWkiIHN0YW5kYWxvbmU9Im5vIj8+PHN2ZyB4bWxucz0iaHR0cDovL3d3dy53My5vcmcvMjAwMC9zdmciIHhtbG5zOnhsaW5rPSJodHRwOi8vd3d3LnczLm9yZy8xOTk5L3hsaW5rIiBjb250ZW50U3R5bGVUeXBlPSJ0ZXh0L2NzcyIgaGVpZ2h0PSIzMTlweCIgcHJlc2VydmVBc3BlY3RSYXRpbz0ibm9uZSIgc3R5bGU9IndpZHRoOjIyMHB4O2hlaWdodDozMTlweDtiYWNrZ3JvdW5kOiNGRkZGRkY7IiB2ZXJzaW9uPSIxLjEiIHZpZXdCb3g9IjAgMCAyMjAgMzE5IiB3aWR0aD0iMjIwcHgiIHpvb21BbmRQYW49Im1hZ25pZnkiPjxkZWZzLz48Zz48ZyBpZD0iZWxlbV9Vc2VyIj48cmVjdCBmaWxsPSIjRjFGMUYxIiBoZWlnaHQ9IjU2Ljk1MzEiIHN0eWxlPSJzdHJva2U6IzE4MTgxODtzdHJva2Utd2lkdGg6MC41OyIgd2lkdGg9IjIwNiIgeD0iNyIgeT0iNyIvPjx0ZXh0IGZpbGw9IiMwMDAwMDAiIGZvbnQtZmFtaWx5PSJzYW5zLXNlcmlmIiBmb250LXNpemU9IjE0IiBsZW5ndGhBZGp1c3Q9InNwYWNpbmciIHRleHRMZW5ndGg9IjI4IiB4PSI5NiIgeT0iMjIuMjM0NCI+VXNlcjwvdGV4dD48bGluZSBzdHlsZT0ic3Ryb2tlOiMxODE4MTg7c3Ryb2tlLXdpZHRoOjAuNTsiIHgxPSI4IiB4Mj0iMjEyIiB5MT0iMjUuOTg0NCIgeTI9IjI1Ljk4NDQiLz48dGV4dCBmaWxsPSIjMDAwMDAwIiBmb250LWZhbWlseT0ic2Fucy1zZXJpZiIgZm9udC1zaXplPSIxNCIgbGVuZ3RoQWRqdXN0PSJzcGFjaW5nIiB0ZXh0TGVuZ3RoPSIxMDEiIHg9IjEzIiB5PSI0My4yMTg4Ij5uYW1lID0gIkFsaWNlIjwvdGV4dD48dGV4dCBmaWxsPSIjMDAwMDAwIiBmb250LWZhbWlseT0ic2Fucy1zZXJpZiIgZm9udC1zaXplPSIxNCIgbGVuZ3RoQWRqdXN0PSJzcGFjaW5nIiB0ZXh0TGVuZ3RoPSIxOTQiIHg9IjEzIiB5PSI1OC4yMDMxIj5lbWFpbCA9ICJhbGljZUBleGFtcGxlLmNvbSI8L3RleHQ+PC9nPjxnIGlkPSJlbGVtX0Jvb2siPjxyZWN0IGZpbGw9IiNGMUYxRjEiIGhlaWdodD0iNTYuOTUzMSIgc3R5bGU9InN0cm9rZTojMTgxODE4O3N0cm9rZS13aWR0aDowLjU7IiB3aWR0aD0iMTg5IiB4PSIxNS41IiB5PSIyNTYiLz48dGV4dCBmaWxsPSIjMDAwMDAwIiBmb250LWZhbWlseT0ic2Fucy1zZXJpZiIgZm9udC1zaXplPSIxNCIgbGVuZ3RoQWRqdXN0PSJzcGFjaW5nIiB0ZXh0TGVuZ3RoPSIyOCIgeD0iOTYiIHk9IjI3MS4yMzQ0Ij5Cb29rPC90ZXh0PjxsaW5lIHN0eWxlPSJzdHJva2U6IzE4MTgxODtzdHJva2Utd2lkdGg6MC41OyIgeDE9IjE2LjUiIHgyPSIyMDMuNSIgeTE9IjI3NC45ODQ0IiB5Mj0iMjc0Ljk4NDQiLz48dGV4dCBmaWxsPSIjMDAwMDAwIiBmb250LWZhbWlseT0ic2Fucy1zZXJpZiIgZm9udC1zaXplPSIxNCIgbGVuZ3RoQWRqdXN0PSJzcGFjaW5nIiB0ZXh0TGVuZ3RoPSIxNzciIHg9IjIxLjUiIHk9IjI5Mi4yMTg4Ij50aXRsZSA9ICJEZXNpZ24gUGF0dGVybnMiPC90ZXh0Pjx0ZXh0IGZpbGw9IiMwMDAwMDAiIGZvbnQtZmFtaWx5PSJzYW5zLXNlcmlmIiBmb250LXNpemU9IjE0IiBsZW5ndGhBZGp1c3Q9InNwYWNpbmciIHRleHRMZW5ndGg9IjE2NSIgeD0iMjEuNSIgeT0iMzA3LjIwMzEiPmF1dGhvciA9ICJHYW1tYSBldCBhbC4iPC90ZXh0PjwvZz48ZyBpZD0iZWxlbV9Mb2FuIj48cmVjdCBmaWxsPSIjRjFGMUYxIiBoZWlnaHQ9IjQxLjk2ODgiIHN0eWxlPSJzdHJva2U6IzE4MTgxODtzdHJva2Utd2lkdGg6MC41OyIgd2lkdGg9IjE0NyIgeD0iMzYuNSIgeT0iMTM5Ii8+PHRleHQgZmlsbD0iIzAwMDAwMCIgZm9udC1mYW1pbHk9InNhbnMtc2VyaWYiIGZvbnQtc2l6ZT0iMTQiIGxlbmd0aEFkanVzdD0ic3BhY2luZyIgdGV4dExlbmd0aD0iMjgiIHg9Ijk2IiB5PSIxNTQuMjM0NCI+TG9hbjwvdGV4dD48bGluZSBzdHlsZT0ic3Ryb2tlOiMxODE4MTg7c3Ryb2tlLXdpZHRoOjAuNTsiIHgxPSIzNy41IiB4Mj0iMTgyLjUiIHkxPSIxNTcuOTg0NCIgeTI9IjE1Ny45ODQ0Ii8+PHRleHQgZmlsbD0iIzAwMDAwMCIgZm9udC1mYW1pbHk9InNhbnMtc2VyaWYiIGZvbnQtc2l6ZT0iMTQiIGxlbmd0aEFkanVzdD0ic3BhY2luZyIgdGV4dExlbmd0aD0iMTM1IiB4PSI0Mi41IiB5PSIxNzUuMjE4OCI+ZGF0ZSA9ICIyMDI0LTA4LTI2IjwvdGV4dD48L2c+PCEtLWxpbmsgVXNlciB0byBMb2FuLS0+PGcgaWQ9ImxpbmtfVXNlcl9Mb2FuIj48cGF0aCBjb2RlTGluZT0iMTIiIGQ9Ik0xMTAsNjQuMyBDMTEwLDg3LjAzIDExMCwxMTIuNjIgMTEwLDEzMi45NSAiIGZpbGw9Im5vbmUiIGlkPSJVc2VyLXRvLUxvYW4iIHN0eWxlPSJzdHJva2U6IzE4MTgxODtzdHJva2Utd2lkdGg6MS4wOyIvPjxwb2x5Z29uIGZpbGw9IiMxODE4MTgiIHBvaW50cz0iMTEwLDEzOC45NSwxMTQsMTI5Ljk1LDExMCwxMzMuOTUsMTA2LDEyOS45NSwxMTAsMTM4Ljk1IiBzdHlsZT0ic3Ryb2tlOiMxODE4MTg7c3Ryb2tlLXdpZHRoOjEuMDsiLz48dGV4dCBmaWxsPSIjMDAwMDAwIiBmb250LWZhbWlseT0ic2Fucy1zZXJpZiIgZm9udC1zaXplPSIxMyIgbGVuZ3RoQWRqdXN0PSJzcGFjaW5nIiB0ZXh0TGVuZ3RoPSI1NCIgeD0iMTExIiB5PSIxMDcuMjg5MSI+ZW1wcnVudGU8L3RleHQ+PC9nPjwhLS1saW5rIExvYW4gdG8gQm9vay0tPjxnIGlkPSJsaW5rX0xvYW5fQm9vayI+PHBhdGggY29kZUxpbmU9IjEzIiBkPSJNMTEwLDE4MS4yMyBDMTEwLDIwMS42MiAxMTAsMjI3LjIyIDExMCwyNDkuOSAiIGZpbGw9Im5vbmUiIGlkPSJMb2FuLXRvLUJvb2siIHN0eWxlPSJzdHJva2U6IzE4MTgxODtzdHJva2Utd2lkdGg6MS4wOyIvPjxwb2x5Z29uIGZpbGw9IiMxODE4MTgiIHBvaW50cz0iMTEwLDI1NS45LDExNCwyNDYuOSwxMTAsMjUwLjksMTA2LDI0Ni45LDExMCwyNTUuOSIgc3R5bGU9InN0cm9rZTojMTgxODE4O3N0cm9rZS13aWR0aDoxLjA7Ii8+PHRleHQgZmlsbD0iIzAwMDAwMCIgZm9udC1mYW1pbHk9InNhbnMtc2VyaWYiIGZvbnQtc2l6ZT0iMTMiIGxlbmd0aEFkanVzdD0ic3BhY2luZyIgdGV4dExlbmd0aD0iNTYiIHg9IjExMSIgeT0iMjI0LjI4OTEiPmNvbmNlcm5lPC90ZXh0PjwvZz48IS0tU1JDPVtKT3hGMmk4bTNDUmxWT2dtVXlTTzhaOUdMMEdsN2hwdTBCNDZoUlJEdzM4R243VHRwSXVVeV90dnZVRmhhdnAwUFEwQzdtRUdDMUFpZVRlNXh3WVExOGhlR3I2bUE1andPLW0zck92WlBSdzZ2X2dVLVFMcnlIQXFWdzMxdG5FU0tPSG82V2U5SHRibUJrT0hPcUdXMEdwcjctTjRjOUhvR3I1OHN4R0Jzd25pa29tZnRNWmpQaXZycXg4LVpxZDh3NXFDZFQ2MXUtSWNmX0czXS0tPjwvZz48L3N2Zz4=;" vertex="1" parent="1">
            <mxGeometry x="730" y="20" width="220" height="319" as="geometry" />
          </mxCell>
        </UserObject>
        <mxCell id="r1eFtCDx-ixWv4gbX7kA-11" value="4. &lt;strong&gt;Diagramme de Communication&lt;/strong&gt;" style="text;whiteSpace=wrap;html=1;" vertex="1" parent="1">
          <mxGeometry x="40" y="440" width="470" height="30" as="geometry" />
        </mxCell>
        <mxCell id="r1eFtCDx-ixWv4gbX7kA-12" value="5. &lt;strong&gt;Diagramme d&#39;Ãtats&lt;/strong&gt;" style="text;whiteSpace=wrap;html=1;" vertex="1" parent="1">
          <mxGeometry x="800" y="428" width="160" height="40" as="geometry" />
        </mxCell>
        <UserObject label="" plantUmlData="{&#xa;  &quot;data&quot;: &quot;@startuml\nactor User\nparticipant \&quot;Serveur d&#39;Authentification\&quot; as AuthServer\nparticipant \&quot;Base de DonnÃ©es\&quot; as DB\n\nUser -&gt; AuthServer : Demande de connexion\nAuthServer -&gt; DB : VÃ©rification des identifiants\nDB --&gt; AuthServer : RÃ©sultat de la vÃ©rification\nAuthServer --&gt; User : RÃ©ponse de connexion\n@enduml\n&quot;,&#xa;  &quot;format&quot;: &quot;svg&quot;&#xa;}" id="r1eFtCDx-ixWv4gbX7kA-13">
          <mxCell style="shape=image;noLabel=1;verticalAlign=top;aspect=fixed;imageAspect=0;image=data:image/svg+xml,PD94bWwgdmVyc2lvbj0iMS4wIiBlbmNvZGluZz0idXMtYXNjaWkiIHN0YW5kYWxvbmU9Im5vIj8+PHN2ZyB4bWxucz0iaHR0cDovL3d3dy53My5vcmcvMjAwMC9zdmciIHhtbG5zOnhsaW5rPSJodHRwOi8vd3d3LnczLm9yZy8xOTk5L3hsaW5rIiBjb250ZW50U3R5bGVUeXBlPSJ0ZXh0L2NzcyIgaGVpZ2h0PSIyOTFweCIgcHJlc2VydmVBc3BlY3RSYXRpbz0ibm9uZSIgc3R5bGU9IndpZHRoOjQ2NnB4O2hlaWdodDoyOTFweDtiYWNrZ3JvdW5kOiNGRkZGRkY7IiB2ZXJzaW9uPSIxLjEiIHZpZXdCb3g9IjAgMCA0NjYgMjkxIiB3aWR0aD0iNDY2cHgiIHpvb21BbmRQYW49Im1hZ25pZnkiPjxkZWZzLz48Zz48bGluZSBzdHlsZT0ic3Ryb2tlOiMxODE4MTg7c3Ryb2tlLXdpZHRoOjAuNTtzdHJva2UtZGFzaGFycmF5OjUuMCw1LjA7IiB4MT0iMjIiIHgyPSIyMiIgeTE9Ijc5Ljk4NDQiIHkyPSIyMTEuNjQwNiIvPjxsaW5lIHN0eWxlPSJzdHJva2U6IzE4MTgxODtzdHJva2Utd2lkdGg6MC41O3N0cm9rZS1kYXNoYXJyYXk6NS4wLDUuMDsiIHgxPSIxODUiIHgyPSIxODUiIHkxPSI3OS45ODQ0IiB5Mj0iMjExLjY0MDYiLz48bGluZSBzdHlsZT0ic3Ryb2tlOiMxODE4MTg7c3Ryb2tlLXdpZHRoOjAuNTtzdHJva2UtZGFzaGFycmF5OjUuMCw1LjA7IiB4MT0iNDAwLjUiIHgyPSI0MDAuNSIgeTE9Ijc5Ljk4NDQiIHkyPSIyMTEuNjQwNiIvPjx0ZXh0IGZpbGw9IiMwMDAwMDAiIGZvbnQtZmFtaWx5PSJzYW5zLXNlcmlmIiBmb250LXNpemU9IjE0IiBsZW5ndGhBZGp1c3Q9InNwYWNpbmciIHRleHRMZW5ndGg9IjI4IiB4PSI1IiB5PSI3OC4yMzQ0Ij5Vc2VyPC90ZXh0PjxlbGxpcHNlIGN4PSIyMiIgY3k9IjEzLjUiIGZpbGw9IiNFMkUyRjAiIHJ4PSI4IiByeT0iOCIgc3R5bGU9InN0cm9rZTojMTgxODE4O3N0cm9rZS13aWR0aDowLjU7Ii8+PHBhdGggZD0iTTIyLDIxLjUgTDIyLDQ4LjUgTTksMjkuNSBMMzUsMjkuNSBNMjIsNDguNSBMOSw2My41IE0yMiw0OC41IEwzNSw2My41ICIgZmlsbD0ibm9uZSIgc3R5bGU9InN0cm9rZTojMTgxODE4O3N0cm9rZS13aWR0aDowLjU7Ii8+PHRleHQgZmlsbD0iIzAwMDAwMCIgZm9udC1mYW1pbHk9InNhbnMtc2VyaWYiIGZvbnQtc2l6ZT0iMTQiIGxlbmd0aEFkanVzdD0ic3BhY2luZyIgdGV4dExlbmd0aD0iMjgiIHg9IjUiIHk9IjIyMy44NzUiPlVzZXI8L3RleHQ+PGVsbGlwc2UgY3g9IjIyIiBjeT0iMjM0LjEyNSIgZmlsbD0iI0UyRTJGMCIgcng9IjgiIHJ5PSI4IiBzdHlsZT0ic3Ryb2tlOiMxODE4MTg7c3Ryb2tlLXdpZHRoOjAuNTsiLz48cGF0aCBkPSJNMjIsMjQyLjEyNSBMMjIsMjY5LjEyNSBNOSwyNTAuMTI1IEwzNSwyNTAuMTI1IE0yMiwyNjkuMTI1IEw5LDI4NC4xMjUgTTIyLDI2OS4xMjUgTDM1LDI4NC4xMjUgIiBmaWxsPSJub25lIiBzdHlsZT0ic3Ryb2tlOiMxODE4MTg7c3Ryb2tlLXdpZHRoOjAuNTsiLz48cmVjdCBmaWxsPSIjRTJFMkYwIiBoZWlnaHQ9IjI4Ljk4NDQiIHJ4PSIyLjUiIHJ5PSIyLjUiIHN0eWxlPSJzdHJva2U6IzE4MTgxODtzdHJva2Utd2lkdGg6MC41OyIgd2lkdGg9IjE5NiIgeD0iODciIHk9IjUwIi8+PHRleHQgZmlsbD0iIzAwMDAwMCIgZm9udC1mYW1pbHk9InNhbnMtc2VyaWYiIGZvbnQtc2l6ZT0iMTQiIGxlbmd0aEFkanVzdD0ic3BhY2luZyIgdGV4dExlbmd0aD0iMTgyIiB4PSI5NCIgeT0iNzAuMjM0NCI+U2VydmV1ciBkJ0F1dGhlbnRpZmljYXRpb248L3RleHQ+PHJlY3QgZmlsbD0iI0UyRTJGMCIgaGVpZ2h0PSIyOC45ODQ0IiByeD0iMi41IiByeT0iMi41IiBzdHlsZT0ic3Ryb2tlOiMxODE4MTg7c3Ryb2tlLXdpZHRoOjAuNTsiIHdpZHRoPSIxOTYiIHg9Ijg3IiB5PSIyMTAuNjQwNiIvPjx0ZXh0IGZpbGw9IiMwMDAwMDAiIGZvbnQtZmFtaWx5PSJzYW5zLXNlcmlmIiBmb250LXNpemU9IjE0IiBsZW5ndGhBZGp1c3Q9InNwYWNpbmciIHRleHRMZW5ndGg9IjE4MiIgeD0iOTQiIHk9IjIzMC44NzUiPlNlcnZldXIgZCdBdXRoZW50aWZpY2F0aW9uPC90ZXh0PjxyZWN0IGZpbGw9IiNFMkUyRjAiIGhlaWdodD0iMjguOTg0NCIgcng9IjIuNSIgcnk9IjIuNSIgc3R5bGU9InN0cm9rZTojMTgxODE4O3N0cm9rZS13aWR0aDowLjU7IiB3aWR0aD0iMTE5IiB4PSIzNDEuNSIgeT0iNTAiLz48dGV4dCBmaWxsPSIjMDAwMDAwIiBmb250LWZhbWlseT0ic2Fucy1zZXJpZiIgZm9udC1zaXplPSIxNCIgbGVuZ3RoQWRqdXN0PSJzcGFjaW5nIiB0ZXh0TGVuZ3RoPSIxMDUiIHg9IjM0OC41IiB5PSI3MC4yMzQ0Ij5CYXNlIGRlIERvbm4mIzIzMztlczwvdGV4dD48cmVjdCBmaWxsPSIjRTJFMkYwIiBoZWlnaHQ9IjI4Ljk4NDQiIHJ4PSIyLjUiIHJ5PSIyLjUiIHN0eWxlPSJzdHJva2U6IzE4MTgxODtzdHJva2Utd2lkdGg6MC41OyIgd2lkdGg9IjExOSIgeD0iMzQxLjUiIHk9IjIxMC42NDA2Ii8+PHRleHQgZmlsbD0iIzAwMDAwMCIgZm9udC1mYW1pbHk9InNhbnMtc2VyaWYiIGZvbnQtc2l6ZT0iMTQiIGxlbmd0aEFkanVzdD0ic3BhY2luZyIgdGV4dExlbmd0aD0iMTA1IiB4PSIzNDguNSIgeT0iMjMwLjg3NSI+QmFzZSBkZSBEb25uJiMyMzM7ZXM8L3RleHQ+PHBvbHlnb24gZmlsbD0iIzE4MTgxOCIgcG9pbnRzPSIxNzMsMTA1Ljg5ODQsMTgzLDEwOS44OTg0LDE3MywxMTMuODk4NCwxNzcsMTA5Ljg5ODQiIHN0eWxlPSJzdHJva2U6IzE4MTgxODtzdHJva2Utd2lkdGg6MS4wOyIvPjxsaW5lIHN0eWxlPSJzdHJva2U6IzE4MTgxODtzdHJva2Utd2lkdGg6MS4wOyIgeDE9IjIyIiB4Mj0iMTc5IiB5MT0iMTA5Ljg5ODQiIHkyPSIxMDkuODk4NCIvPjx0ZXh0IGZpbGw9IiMwMDAwMDAiIGZvbnQtZmFtaWx5PSJzYW5zLXNlcmlmIiBmb250LXNpemU9IjEzIiBsZW5ndGhBZGp1c3Q9InNwYWNpbmciIHRleHRMZW5ndGg9IjEzOCIgeD0iMjkiIHk9IjEwNi4yNzM0Ij5EZW1hbmRlIGRlIGNvbm5leGlvbjwvdGV4dD48cG9seWdvbiBmaWxsPSIjMTgxODE4IiBwb2ludHM9IjM4OSwxMzMuODEyNSwzOTksMTM3LjgxMjUsMzg5LDE0MS44MTI1LDM5MywxMzcuODEyNSIgc3R5bGU9InN0cm9rZTojMTgxODE4O3N0cm9rZS13aWR0aDoxLjA7Ii8+PGxpbmUgc3R5bGU9InN0cm9rZTojMTgxODE4O3N0cm9rZS13aWR0aDoxLjA7IiB4MT0iMTg1IiB4Mj0iMzk1IiB5MT0iMTM3LjgxMjUiIHkyPSIxMzcuODEyNSIvPjx0ZXh0IGZpbGw9IiMwMDAwMDAiIGZvbnQtZmFtaWx5PSJzYW5zLXNlcmlmIiBmb250LXNpemU9IjEzIiBsZW5ndGhBZGp1c3Q9InNwYWNpbmciIHRleHRMZW5ndGg9IjE5MiIgeD0iMTkyIiB5PSIxMzQuMTg3NSI+ViYjMjMzO3JpZmljYXRpb24gZGVzIGlkZW50aWZpYW50czwvdGV4dD48cG9seWdvbiBmaWxsPSIjMTgxODE4IiBwb2ludHM9IjE5NiwxNjEuNzI2NiwxODYsMTY1LjcyNjYsMTk2LDE2OS43MjY2LDE5MiwxNjUuNzI2NiIgc3R5bGU9InN0cm9rZTojMTgxODE4O3N0cm9rZS13aWR0aDoxLjA7Ii8+PGxpbmUgc3R5bGU9InN0cm9rZTojMTgxODE4O3N0cm9rZS13aWR0aDoxLjA7c3Ryb2tlLWRhc2hhcnJheToyLjAsMi4wOyIgeDE9IjE5MCIgeDI9IjQwMCIgeTE9IjE2NS43MjY2IiB5Mj0iMTY1LjcyNjYiLz48dGV4dCBmaWxsPSIjMDAwMDAwIiBmb250LWZhbWlseT0ic2Fucy1zZXJpZiIgZm9udC1zaXplPSIxMyIgbGVuZ3RoQWRqdXN0PSJzcGFjaW5nIiB0ZXh0TGVuZ3RoPSIxODAiIHg9IjIwMiIgeT0iMTYyLjEwMTYiPlImIzIzMztzdWx0YXQgZGUgbGEgdiYjMjMzO3JpZmljYXRpb248L3RleHQ+PHBvbHlnb24gZmlsbD0iIzE4MTgxOCIgcG9pbnRzPSIzMywxODkuNjQwNiwyMywxOTMuNjQwNiwzMywxOTcuNjQwNiwyOSwxOTMuNjQwNiIgc3R5bGU9InN0cm9rZTojMTgxODE4O3N0cm9rZS13aWR0aDoxLjA7Ii8+PGxpbmUgc3R5bGU9InN0cm9rZTojMTgxODE4O3N0cm9rZS13aWR0aDoxLjA7c3Ryb2tlLWRhc2hhcnJheToyLjAsMi4wOyIgeDE9IjI3IiB4Mj0iMTg0IiB5MT0iMTkzLjY0MDYiIHkyPSIxOTMuNjQwNiIvPjx0ZXh0IGZpbGw9IiMwMDAwMDAiIGZvbnQtZmFtaWx5PSJzYW5zLXNlcmlmIiBmb250LXNpemU9IjEzIiBsZW5ndGhBZGp1c3Q9InNwYWNpbmciIHRleHRMZW5ndGg9IjEzOSIgeD0iMzkiIHk9IjE5MC4wMTU2Ij5SJiMyMzM7cG9uc2UgZGUgY29ubmV4aW9uPC90ZXh0PjwhLS1TUkM9W05PdjEyaThtNDROdEVTTkdaUWpVbThMV29HYUt0R185WTg0d0FQY2ZVQU1VZW5UcDZhN1FSWl9sX1Z5blEydm00b2ZrbUE4ZmYwNVBlUmJJVVRETzgxeEVlcHc5REpySUc0c1A2cTIxOVFwOEprakcyMkExcHlwcEg1OVh0cGN0QjQxeE1lYm0xNHlsdjVZNU8wOXpoRHdqMkVEelB6bnpkaWZfdHNZMTU3LU5SNUlTQ1VzLSAtWjlGQ2xRQWtmSnQyRXpybk1SM3A3Z2tFYURjc1Z4djBXMDBdLS0+PC9nPjwvc3ZnPg==;" vertex="1" parent="1">
            <mxGeometry x="30" y="490" width="466" height="291" as="geometry" />
          </mxCell>
        </UserObject>
        <UserObject label="" plantUmlData="{&#xa;  &quot;data&quot;: &quot;@startuml\n[*] --&gt; EnAttente\nEnAttente -&gt; ExpÃ©diÃ©e : Paiement reÃ§u\nExpÃ©diÃ©e -&gt; LivrÃ©e : Livraison effectuÃ©e\nLivrÃ©e -&gt; [*]\n@enduml\n&quot;,&#xa;  &quot;format&quot;: &quot;svg&quot;&#xa;}" id="r1eFtCDx-ixWv4gbX7kA-14">
          <mxCell style="shape=image;noLabel=1;verticalAlign=top;aspect=fixed;imageAspect=0;image=data:image/svg+xml,PD94bWwgdmVyc2lvbj0iMS4wIiBlbmNvZGluZz0idXMtYXNjaWkiIHN0YW5kYWxvbmU9Im5vIj8+PHN2ZyB4bWxucz0iaHR0cDovL3d3dy53My5vcmcvMjAwMC9zdmciIHhtbG5zOnhsaW5rPSJodHRwOi8vd3d3LnczLm9yZy8xOTk5L3hsaW5rIiBjb250ZW50U3R5bGVUeXBlPSJ0ZXh0L2NzcyIgaGVpZ2h0PSIxNDNweCIgcHJlc2VydmVBc3BlY3RSYXRpbz0ibm9uZSIgc3R5bGU9IndpZHRoOjU4MHB4O2hlaWdodDoxNDNweDtiYWNrZ3JvdW5kOiNGRkZGRkY7IiB2ZXJzaW9uPSIxLjEiIHZpZXdCb3g9IjAgMCA1ODAgMTQzIiB3aWR0aD0iNTgwcHgiIHpvb21BbmRQYW49Im1hZ25pZnkiPjxkZWZzLz48Zz48ZWxsaXBzZSBjeD0iNDguNSIgY3k9IjE2IiBmaWxsPSIjMjIyMjIyIiByeD0iMTAiIHJ5PSIxMCIgc3R5bGU9InN0cm9rZTojMjIyMjIyO3N0cm9rZS13aWR0aDoxLjA7Ii8+PGcgaWQ9IkVuQXR0ZW50ZSI+PHJlY3QgZmlsbD0iI0YxRjFGMSIgaGVpZ2h0PSI1MCIgcng9IjEyLjUiIHJ5PSIxMi41IiBzdHlsZT0ic3Ryb2tlOiMxODE4MTg7c3Ryb2tlLXdpZHRoOjAuNTsiIHdpZHRoPSI4MyIgeD0iNyIgeT0iODciLz48bGluZSBzdHlsZT0ic3Ryb2tlOiMxODE4MTg7c3Ryb2tlLXdpZHRoOjAuNTsiIHgxPSI3IiB4Mj0iOTAiIHkxPSIxMTEuOTg0NCIgeTI9IjExMS45ODQ0Ii8+PHRleHQgZmlsbD0iIzAwMDAwMCIgZm9udC1mYW1pbHk9InNhbnMtc2VyaWYiIGZvbnQtc2l6ZT0iMTQiIGxlbmd0aEFkanVzdD0ic3BhY2luZyIgdGV4dExlbmd0aD0iNjMiIHg9IjE3IiB5PSIxMDUuMjM0NCI+RW5BdHRlbnRlPC90ZXh0PjwvZz48ZyBpZD0iRXhwJiMyMzM7ZGkmIzIzMztlIj48cmVjdCBmaWxsPSIjRjFGMUYxIiBoZWlnaHQ9IjUwIiByeD0iMTIuNSIgcnk9IjEyLjUiIHN0eWxlPSJzdHJva2U6IzE4MTgxODtzdHJva2Utd2lkdGg6MC41OyIgd2lkdGg9Ijc2IiB4PSIyMTQuNSIgeT0iODciLz48bGluZSBzdHlsZT0ic3Ryb2tlOiMxODE4MTg7c3Ryb2tlLXdpZHRoOjAuNTsiIHgxPSIyMTQuNSIgeDI9IjI5MC41IiB5MT0iMTExLjk4NDQiIHkyPSIxMTEuOTg0NCIvPjx0ZXh0IGZpbGw9IiMwMDAwMDAiIGZvbnQtZmFtaWx5PSJzYW5zLXNlcmlmIiBmb250LXNpemU9IjE0IiBsZW5ndGhBZGp1c3Q9InNwYWNpbmciIHRleHRMZW5ndGg9IjU2IiB4PSIyMjQuNSIgeT0iMTA1LjIzNDQiPkV4cCYjMjMzO2RpJiMyMzM7ZTwvdGV4dD48L2c+PGcgaWQ9IkxpdnImIzIzMztlIj48cmVjdCBmaWxsPSIjRjFGMUYxIiBoZWlnaHQ9IjUwIiByeD0iMTIuNSIgcnk9IjEyLjUiIHN0eWxlPSJzdHJva2U6IzE4MTgxODtzdHJva2Utd2lkdGg6MC41OyIgd2lkdGg9IjYyIiB4PSI0NTUuNSIgeT0iODciLz48bGluZSBzdHlsZT0ic3Ryb2tlOiMxODE4MTg7c3Ryb2tlLXdpZHRoOjAuNTsiIHgxPSI0NTUuNSIgeDI9IjUxNy41IiB5MT0iMTExLjk4NDQiIHkyPSIxMTEuOTg0NCIvPjx0ZXh0IGZpbGw9IiMwMDAwMDAiIGZvbnQtZmFtaWx5PSJzYW5zLXNlcmlmIiBmb250LXNpemU9IjE0IiBsZW5ndGhBZGp1c3Q9InNwYWNpbmciIHRleHRMZW5ndGg9IjQyIiB4PSI0NjUuNSIgeT0iMTA1LjIzNDQiPkxpdnImIzIzMztlPC90ZXh0PjwvZz48ZWxsaXBzZSBjeD0iNTYzLjUiIGN5PSIxMTIiIGZpbGw9Im5vbmUiIHJ4PSIxMSIgcnk9IjExIiBzdHlsZT0ic3Ryb2tlOiMyMjIyMjI7c3Ryb2tlLXdpZHRoOjEuMDsiLz48ZWxsaXBzZSBjeD0iNTYzLjUiIGN5PSIxMTIiIGZpbGw9IiMyMjIyMjIiIHJ4PSI2IiByeT0iNiIgc3R5bGU9InN0cm9rZTojMjIyMjIyO3N0cm9rZS13aWR0aDoxLjA7Ii8+PCEtLWxpbmsgKnN0YXJ0KiB0byBFbkF0dGVudGUtLT48ZyBpZD0ibGlua18qc3RhcnQqX0VuQXR0ZW50ZSI+PHBhdGggZD0iTTQ4LjUsMjYuMDEgQzQ4LjUsMzkuODkgNDguNSw2MC45NyA0OC41LDgwLjg0ICIgZmlsbD0ibm9uZSIgaWQ9IipzdGFydCotdG8tRW5BdHRlbnRlIiBzdHlsZT0ic3Ryb2tlOiMxODE4MTg7c3Ryb2tlLXdpZHRoOjEuMDsiLz48cG9seWdvbiBmaWxsPSIjMTgxODE4IiBwb2ludHM9IjQ4LjUsODYuODQsNTIuNSw3Ny44NCw0OC41LDgxLjg0LDQ0LjUsNzcuODQsNDguNSw4Ni44NCIgc3R5bGU9InN0cm9rZTojMTgxODE4O3N0cm9rZS13aWR0aDoxLjA7Ii8+PC9nPjwhLS1saW5rIEVuQXR0ZW50ZSB0byBFeHA/ZGk/ZS0tPjxnIGlkPSJsaW5rX0VuQXR0ZW50ZV9FeHAmIzIzMztkaSYjMjMzO2UiPjxwYXRoIGQ9Ik05MC4yNywxMTIgQzEyNi42NCwxMTIgMTcyLjkzLDExMiAyMDguMjMsMTEyICIgZmlsbD0ibm9uZSIgaWQ9IkVuQXR0ZW50ZS10by1FeHAmIzIzMztkaSYjMjMzO2UiIHN0eWxlPSJzdHJva2U6IzE4MTgxODtzdHJva2Utd2lkdGg6MS4wOyIvPjxwb2x5Z29uIGZpbGw9IiMxODE4MTgiIHBvaW50cz0iMjE0LjIzLDExMiwyMDUuMjMsMTA4LDIwOS4yMywxMTIsMjA1LjIzLDExNiwyMTQuMjMsMTEyIiBzdHlsZT0ic3Ryb2tlOiMxODE4MTg7c3Ryb2tlLXdpZHRoOjEuMDsiLz48dGV4dCBmaWxsPSIjMDAwMDAwIiBmb250LWZhbWlseT0ic2Fucy1zZXJpZiIgZm9udC1zaXplPSIxMyIgbGVuZ3RoQWRqdXN0PSJzcGFjaW5nIiB0ZXh0TGVuZ3RoPSI4OCIgeD0iMTA4LjI1IiB5PSIxMDcuMjg5MSI+UGFpZW1lbnQgcmUmIzIzMTt1PC90ZXh0PjwvZz48IS0tbGluayBFeHA/ZGk/ZSB0byBMaXZyP2UtLT48ZyBpZD0ibGlua19FeHAmIzIzMztkaSYjMjMzO2VfTGl2ciYjMjMzO2UiPjxwYXRoIGQ9Ik0yOTAuNjIsMTEyIEMzMzYuNDYsMTEyIDQwNi41NSwxMTIgNDQ5LjE1LDExMiAiIGZpbGw9Im5vbmUiIGlkPSJFeHAmIzIzMztkaSYjMjMzO2UtdG8tTGl2ciYjMjMzO2UiIHN0eWxlPSJzdHJva2U6IzE4MTgxODtzdHJva2Utd2lkdGg6MS4wOyIvPjxwb2x5Z29uIGZpbGw9IiMxODE4MTgiIHBvaW50cz0iNDU1LjE1LDExMiw0NDYuMTUsMTA4LDQ1MC4xNSwxMTIsNDQ2LjE1LDExNiw0NTUuMTUsMTEyIiBzdHlsZT0ic3Ryb2tlOiMxODE4MTg7c3Ryb2tlLXdpZHRoOjEuMDsiLz48dGV4dCBmaWxsPSIjMDAwMDAwIiBmb250LWZhbWlseT0ic2Fucy1zZXJpZiIgZm9udC1zaXplPSIxMyIgbGVuZ3RoQWRqdXN0PSJzcGFjaW5nIiB0ZXh0TGVuZ3RoPSIxMjgiIHg9IjMwOSIgeT0iMTA3LjI4OTEiPkxpdnJhaXNvbiBlZmZlY3R1JiMyMzM7ZTwvdGV4dD48L2c+PCEtLWxpbmsgTGl2cj9lIHRvICplbmQqLS0+PGcgaWQ9ImxpbmtfTGl2ciYjMjMzO2VfKmVuZCoiPjxwYXRoIGQ9Ik01MTcuNzgsMTEyIEM1MjkuMzMsMTEyIDUzNC44OCwxMTIgNTQ2LjQzLDExMiAiIGZpbGw9Im5vbmUiIGlkPSJMaXZyJiMyMzM7ZS10by0qZW5kKiIgc3R5bGU9InN0cm9rZTojMTgxODE4O3N0cm9rZS13aWR0aDoxLjA7Ii8+PHBvbHlnb24gZmlsbD0iIzE4MTgxOCIgcG9pbnRzPSI1NTIuNDMsMTEyLDU0My40MywxMDgsNTQ3LjQzLDExMiw1NDMuNDMsMTE2LDU1Mi40MywxMTIiIHN0eWxlPSJzdHJva2U6IzE4MTgxODtzdHJva2Utd2lkdGg6MS4wOyIvPjwvZz48IS0tU1JDPVtZelFBTFQzTGpMRG1wTkNpQUtkREFxZGJXaENLR0M4TDFPVE5mY0dVTmZjZ09BS0dhOVlQY1drS0tJWEFGUm95YjBqOTNnWkk5eEVpMkE4Q240aENCQ3hGS3FYRElxakRCWWE1MmRGMWY4NGdleExZMEcwMF0tLT48L2c+PC9zdmc+;" vertex="1" parent="1">
            <mxGeometry x="700" y="460" width="580" height="143" as="geometry" />
          </mxCell>
        </UserObject>
        <mxCell id="r1eFtCDx-ixWv4gbX7kA-17" value="6. &lt;strong&gt;Diagramme de Profils&lt;/strong&gt;" style="text;whiteSpace=wrap;html=1;" vertex="1" parent="1">
          <mxGeometry x="637" y="750" width="170" height="40" as="geometry" />
        </mxCell>
        <mxCell id="r1eFtCDx-ixWv4gbX7kA-18" value="7. &lt;strong&gt;Diagramme de Structure Composite&lt;/strong&gt;" style="text;whiteSpace=wrap;html=1;" vertex="1" parent="1">
          <mxGeometry x="50" y="840" width="250" height="40" as="geometry" />
        </mxCell>
        <UserObject label="" plantUmlData="{&#xa;  &quot;data&quot;: &quot;@startuml\npackage \&quot;SystÃ¨me de Gestion de Documents\&quot; {\n  class \&quot;Document\&quot; {\n    +ID\n    +Titre\n    +Contenu\n  }\n  class \&quot;Utilisateur\&quot; {\n    +Nom\n    +Email\n  }\n  Document --&gt; Utilisateur : ConsultÃ© par\n}\n@enduml\n&quot;,&#xa;  &quot;format&quot;: &quot;svg&quot;&#xa;}" id="r1eFtCDx-ixWv4gbX7kA-20">
          <mxCell style="shape=image;noLabel=1;verticalAlign=top;aspect=fixed;imageAspect=0;image=data:image/svg+xml,PD94bWwgdmVyc2lvbj0iMS4wIiBlbmNvZGluZz0idXMtYXNjaWkiIHN0YW5kYWxvbmU9Im5vIj8+PHN2ZyB4bWxucz0iaHR0cDovL3d3dy53My5vcmcvMjAwMC9zdmciIHhtbG5zOnhsaW5rPSJodHRwOi8vd3d3LnczLm9yZy8xOTk5L3hsaW5rIiBjb250ZW50U3R5bGVUeXBlPSJ0ZXh0L2NzcyIgaGVpZ2h0PSIzMDhweCIgcHJlc2VydmVBc3BlY3RSYXRpbz0ibm9uZSIgc3R5bGU9IndpZHRoOjI0OHB4O2hlaWdodDozMDhweDtiYWNrZ3JvdW5kOiNGRkZGRkY7IiB2ZXJzaW9uPSIxLjEiIHZpZXdCb3g9IjAgMCAyNDggMzA4IiB3aWR0aD0iMjQ4cHgiIHpvb21BbmRQYW49Im1hZ25pZnkiPjxkZWZzLz48Zz48IS0tY2x1c3RlciBTeXN0P21lIGRlIEdlc3Rpb24gZGUgRG9jdW1lbnRzLS0+PGcgaWQ9ImNsdXN0ZXJfU3lzdCYjMjMyO21lIGRlIEdlc3Rpb24gZGUgRG9jdW1lbnRzIj48cGF0aCBkPSJNOC41LDYgTDIyOC41LDYgQTMuNzUsMy43NSAwIDAgMSAyMzEsOC41IEwyMzgsMjYuOTg0NCBMMjM4LjUsMjYuOTg0NCBBMi41LDIuNSAwIDAgMSAyNDEsMjkuNDg0NCBMMjQxLDI5OC41IEEyLjUsMi41IDAgMCAxIDIzOC41LDMwMSBMOC41LDMwMSBBMi41LDIuNSAwIDAgMSA2LDI5OC41IEw2LDguNSBBMi41LDIuNSAwIDAgMSA4LjUsNiAiIGZpbGw9Im5vbmUiIHN0eWxlPSJzdHJva2U6IzAwMDAwMDtzdHJva2Utd2lkdGg6MS41OyIvPjxsaW5lIHN0eWxlPSJzdHJva2U6IzAwMDAwMDtzdHJva2Utd2lkdGg6MS41OyIgeDE9IjYiIHgyPSIyMzgiIHkxPSIyNi45ODQ0IiB5Mj0iMjYuOTg0NCIvPjx0ZXh0IGZpbGw9IiMwMDAwMDAiIGZvbnQtZmFtaWx5PSJzYW5zLXNlcmlmIiBmb250LXNpemU9IjE0IiBmb250LXdlaWdodD0iYm9sZCIgbGVuZ3RoQWRqdXN0PSJzcGFjaW5nIiB0ZXh0TGVuZ3RoPSIyMTkiIHg9IjEwIiB5PSIyMS4yMzQ0Ij5TeXN0JiMyMzI7bWUgZGUgR2VzdGlvbiBkZSBEb2N1bWVudHM8L3RleHQ+PC9nPjwhLS1jbGFzcyBEb2N1bWVudC0tPjxnIGlkPSJlbGVtX0RvY3VtZW50Ij48cmVjdCBjb2RlTGluZT0iMiIgZmlsbD0iI0YxRjFGMSIgaGVpZ2h0PSI5Mi45NTMxIiBpZD0iRG9jdW1lbnQiIHJ4PSIyLjUiIHJ5PSIyLjUiIHN0eWxlPSJzdHJva2U6IzE4MTgxODtzdHJva2Utd2lkdGg6MC41OyIgd2lkdGg9Ijg5IiB4PSI2My41IiB5PSIzOSIvPjxlbGxpcHNlIGN4PSI3OC41IiBjeT0iNTUiIGZpbGw9IiNBREQxQjIiIHJ4PSIxMSIgcnk9IjExIiBzdHlsZT0ic3Ryb2tlOiMxODE4MTg7c3Ryb2tlLXdpZHRoOjEuMDsiLz48cGF0aCBkPSJNNzYuMTI1LDU5LjI1IEw3Ni4xMjUsNjEgTDgxLjA2MjUsNjEgTDgxLjA2MjUsNTkuMjUgTDc2LjEyNSw1OS4yNSBaIE03Ni44MTI1LDU5LjkzNzUgUTc2LjgxMjUsNTkuOTM3NSA3Ni44MTI1LDUwLjc1IEw3NS4wNjI1LDUwLjc1IFE3NS4wNjI1LDUwLjc1IDc1LjA2MjUsNTkuOTM3NSBMNzYuODEyNSw1OS45Mzc1IFogTTgwLjM3NSw1OS45Mzc1IEw4Mi4xMjUsNTkuOTM3NSBRODIuMTI1LDU5LjkzNzUgODIuMTI1LDU3LjEyNSBMODAuMzc1LDU3LjEyNSBRODAuMzc1LDU3LjEyNSA4MC4zNzUsNTkuOTM3NSBaIE04MC4zNzUsNTAuNzUgUTgwLjM3NSw1MC43NSA4MC4zNzUsNTMuNTYyNSBMODIuMTI1LDUzLjU2MjUgUTgyLjEyNSw1My41NjI1IDgyLjEyNSw1MC43NSBMODAuMzc1LDUwLjc1IFogTTc2LjEyNSw1MS40Mzc1IEw4MS4wNjI1LDUxLjQzNzUgTDgxLjA2MjUsNDkuNjg3NSBMNzYuMTI1LDQ5LjY4NzUgTDc2LjEyNSw1MS40Mzc1IFogIiBmaWxsPSIjMDAwMDAwIi8+PHRleHQgZmlsbD0iIzAwMDAwMCIgZm9udC1mYW1pbHk9InNhbnMtc2VyaWYiIGZvbnQtc2l6ZT0iMTQiIGxlbmd0aEFkanVzdD0ic3BhY2luZyIgdGV4dExlbmd0aD0iNTciIHg9IjkyLjUiIHk9IjYwLjc0MjIiPkRvY3VtZW50PC90ZXh0PjxsaW5lIHN0eWxlPSJzdHJva2U6IzE4MTgxODtzdHJva2Utd2lkdGg6MC41OyIgeDE9IjY0LjUiIHgyPSIxNTEuNSIgeTE9IjcxIiB5Mj0iNzEiLz48ZWxsaXBzZSBjeD0iNzQuNSIgY3k9IjgzLjk5MjIiIGZpbGw9Im5vbmUiIHJ4PSIzIiByeT0iMyIgc3R5bGU9InN0cm9rZTojMDM4MDQ4O3N0cm9rZS13aWR0aDoxLjA7Ii8+PHRleHQgZmlsbD0iIzAwMDAwMCIgZm9udC1mYW1pbHk9InNhbnMtc2VyaWYiIGZvbnQtc2l6ZT0iMTQiIGxlbmd0aEFkanVzdD0ic3BhY2luZyIgdGV4dExlbmd0aD0iMTQiIHg9IjgzLjUiIHk9Ijg4LjIzNDQiPklEPC90ZXh0PjxlbGxpcHNlIGN4PSI3NC41IiBjeT0iOTguOTc2NiIgZmlsbD0ibm9uZSIgcng9IjMiIHJ5PSIzIiBzdHlsZT0ic3Ryb2tlOiMwMzgwNDg7c3Ryb2tlLXdpZHRoOjEuMDsiLz48dGV4dCBmaWxsPSIjMDAwMDAwIiBmb250LWZhbWlseT0ic2Fucy1zZXJpZiIgZm9udC1zaXplPSIxNCIgbGVuZ3RoQWRqdXN0PSJzcGFjaW5nIiB0ZXh0TGVuZ3RoPSIzNSIgeD0iODMuNSIgeT0iMTAzLjIxODgiPlRpdHJlPC90ZXh0PjxlbGxpcHNlIGN4PSI3NC41IiBjeT0iMTEzLjk2MDkiIGZpbGw9Im5vbmUiIHJ4PSIzIiByeT0iMyIgc3R5bGU9InN0cm9rZTojMDM4MDQ4O3N0cm9rZS13aWR0aDoxLjA7Ii8+PHRleHQgZmlsbD0iIzAwMDAwMCIgZm9udC1mYW1pbHk9InNhbnMtc2VyaWYiIGZvbnQtc2l6ZT0iMTQiIGxlbmd0aEFkanVzdD0ic3BhY2luZyIgdGV4dExlbmd0aD0iNDkiIHg9IjgzLjUiIHk9IjExOC4yMDMxIj5Db250ZW51PC90ZXh0PjxsaW5lIHN0eWxlPSJzdHJva2U6IzE4MTgxODtzdHJva2Utd2lkdGg6MC41OyIgeDE9IjY0LjUiIHgyPSIxNTEuNSIgeTE9IjEyMy45NTMxIiB5Mj0iMTIzLjk1MzEiLz48L2c+PCEtLWNsYXNzIFV0aWxpc2F0ZXVyLS0+PGcgaWQ9ImVsZW1fVXRpbGlzYXRldXIiPjxyZWN0IGNvZGVMaW5lPSI3IiBmaWxsPSIjRjFGMUYxIiBoZWlnaHQ9Ijc3Ljk2ODgiIGlkPSJVdGlsaXNhdGV1ciIgcng9IjIuNSIgcnk9IjIuNSIgc3R5bGU9InN0cm9rZTojMTgxODE4O3N0cm9rZS13aWR0aDowLjU7IiB3aWR0aD0iMTA5IiB4PSI2NC41IiB5PSIyMDciLz48ZWxsaXBzZSBjeD0iNzkuNSIgY3k9IjIyMyIgZmlsbD0iI0FERDFCMiIgcng9IjExIiByeT0iMTEiIHN0eWxlPSJzdHJva2U6IzE4MTgxODtzdHJva2Utd2lkdGg6MS4wOyIvPjxwYXRoIGQ9Ik03Ny4xMjUsMjI3LjI1IEw3Ny4xMjUsMjI5IEw4Mi4wNjI1LDIyOSBMODIuMDYyNSwyMjcuMjUgTDc3LjEyNSwyMjcuMjUgWiBNNzcuODEyNSwyMjcuOTM3NSBRNzcuODEyNSwyMjcuOTM3NSA3Ny44MTI1LDIxOC43NSBMNzYuMDYyNSwyMTguNzUgUTc2LjA2MjUsMjE4Ljc1IDc2LjA2MjUsMjI3LjkzNzUgTDc3LjgxMjUsMjI3LjkzNzUgWiBNODEuMzc1LDIyNy45Mzc1IEw4My4xMjUsMjI3LjkzNzUgUTgzLjEyNSwyMjcuOTM3NSA4My4xMjUsMjI1LjEyNSBMODEuMzc1LDIyNS4xMjUgUTgxLjM3NSwyMjUuMTI1IDgxLjM3NSwyMjcuOTM3NSBaIE04MS4zNzUsMjE4Ljc1IFE4MS4zNzUsMjE4Ljc1IDgxLjM3NSwyMjEuNTYyNSBMODMuMTI1LDIyMS41NjI1IFE4My4xMjUsMjIxLjU2MjUgODMuMTI1LDIxOC43NSBMODEuMzc1LDIxOC43NSBaIE03Ny4xMjUsMjE5LjQzNzUgTDgyLjA2MjUsMjE5LjQzNzUgTDgyLjA2MjUsMjE3LjY4NzUgTDc3LjEyNSwyMTcuNjg3NSBMNzcuMTI1LDIxOS40Mzc1IFogIiBmaWxsPSIjMDAwMDAwIi8+PHRleHQgZmlsbD0iIzAwMDAwMCIgZm9udC1mYW1pbHk9InNhbnMtc2VyaWYiIGZvbnQtc2l6ZT0iMTQiIGxlbmd0aEFkanVzdD0ic3BhY2luZyIgdGV4dExlbmd0aD0iNzciIHg9IjkzLjUiIHk9IjIyOC43NDIyIj5VdGlsaXNhdGV1cjwvdGV4dD48bGluZSBzdHlsZT0ic3Ryb2tlOiMxODE4MTg7c3Ryb2tlLXdpZHRoOjAuNTsiIHgxPSI2NS41IiB4Mj0iMTcyLjUiIHkxPSIyMzkiIHkyPSIyMzkiLz48ZWxsaXBzZSBjeD0iNzUuNSIgY3k9IjI1MS45OTIyIiBmaWxsPSJub25lIiByeD0iMyIgcnk9IjMiIHN0eWxlPSJzdHJva2U6IzAzODA0ODtzdHJva2Utd2lkdGg6MS4wOyIvPjx0ZXh0IGZpbGw9IiMwMDAwMDAiIGZvbnQtZmFtaWx5PSJzYW5zLXNlcmlmIiBmb250LXNpemU9IjE0IiBsZW5ndGhBZGp1c3Q9InNwYWNpbmciIHRleHRMZW5ndGg9IjIyIiB4PSI4NC41IiB5PSIyNTYuMjM0NCI+Tm9tPC90ZXh0PjxlbGxpcHNlIGN4PSI3NS41IiBjeT0iMjY2Ljk3NjYiIGZpbGw9Im5vbmUiIHJ4PSIzIiByeT0iMyIgc3R5bGU9InN0cm9rZTojMDM4MDQ4O3N0cm9rZS13aWR0aDoxLjA7Ii8+PHRleHQgZmlsbD0iIzAwMDAwMCIgZm9udC1mYW1pbHk9InNhbnMtc2VyaWYiIGZvbnQtc2l6ZT0iMTQiIGxlbmd0aEFkanVzdD0ic3BhY2luZyIgdGV4dExlbmd0aD0iMzYiIHg9Ijg0LjUiIHk9IjI3MS4yMTg4Ij5FbWFpbDwvdGV4dD48bGluZSBzdHlsZT0ic3Ryb2tlOiMxODE4MTg7c3Ryb2tlLXdpZHRoOjAuNTsiIHgxPSI2NS41IiB4Mj0iMTcyLjUiIHkxPSIyNzYuOTY4OCIgeTI9IjI3Ni45Njg4Ii8+PC9nPjwhLS1saW5rIERvY3VtZW50IHRvIFV0aWxpc2F0ZXVyLS0+PGcgaWQ9ImxpbmtfRG9jdW1lbnRfVXRpbGlzYXRldXIiPjxwYXRoIGNvZGVMaW5lPSIxMSIgZD0iTTExMS4xOCwxMzIuMzQgQzExMi44MiwxNTUuOTMgMTE0LjM3MzIsMTc4LjM2NDUgMTE1LjkzMzIsMjAwLjc2NDUgIiBmaWxsPSJub25lIiBpZD0iRG9jdW1lbnQtdG8tVXRpbGlzYXRldXIiIHN0eWxlPSJzdHJva2U6IzE4MTgxODtzdHJva2Utd2lkdGg6MS4wOyIvPjxwb2x5Z29uIGZpbGw9IiMxODE4MTgiIHBvaW50cz0iMTE2LjM1LDIwNi43NSwxMTkuNzE1MSwxOTcuNDkzOCwxMTYuMDAyNiwyMDEuNzYyMSwxMTEuNzM0NCwxOTguMDQ5NiwxMTYuMzUsMjA2Ljc1IiBzdHlsZT0ic3Ryb2tlOiMxODE4MTg7c3Ryb2tlLXdpZHRoOjEuMDsiLz48dGV4dCBmaWxsPSIjMDAwMDAwIiBmb250LWZhbWlseT0ic2Fucy1zZXJpZiIgZm9udC1zaXplPSIxMyIgbGVuZ3RoQWRqdXN0PSJzcGFjaW5nIiB0ZXh0TGVuZ3RoPSI4MiIgeD0iMTE1IiB5PSIxNzUuMjg5MSI+Q29uc3VsdCYjMjMzOyBwYXI8L3RleHQ+PC9nPjwhLS1TUkM9W0pPcXozaThtMzhOdGRrOGZBLWU1NjVXZUdZbWltMDZpT0E2OF81SW5DbzNLLXkwdlVaNkFHZTc5ZHZfeS1WTGFodEhYY0NERFQ3bTRuZmNuUEw2TnVYa3hQNGxXZzY5bVJtM2hJR0hjSmNpOEI3UFRkS1VkY0lra0tySUVQTGc2ZHRYSXZ2c0dTaWJWVHZ6MlhLcVd2cF90U21GUVRlS18ycWpDWndMdTdQX2VBSlYzMm0wMF0tLT48L2c+PC9zdmc+;" vertex="1" parent="1">
            <mxGeometry x="20" y="910" width="248" height="308" as="geometry" />
          </mxCell>
        </UserObject>
        <mxCell id="r1eFtCDx-ixWv4gbX7kA-21" value="8. &lt;strong&gt;Diagramme de Temps&lt;/strong&gt;" style="text;whiteSpace=wrap;html=1;" vertex="1" parent="1">
          <mxGeometry x="1030" y="741" width="170" height="40" as="geometry" />
        </mxCell>
        <UserObject label="" plantUmlData="{&#xa;  &quot;data&quot;: &quot;@startuml\npackage \&quot;Profil SantÃ©\&quot; {\n  class Doctor &lt;&lt;stereotype&gt;&gt; \n  class Patient &lt;&lt;stereotype&gt;&gt; \n  class Hospital &lt;&lt;stereotype&gt;&gt; \n}\n@enduml&quot;,&#xa;  &quot;format&quot;: &quot;svg&quot;&#xa;}" id="r1eFtCDx-ixWv4gbX7kA-34">
          <mxCell style="shape=image;noLabel=1;verticalAlign=top;aspect=fixed;imageAspect=0;image=data:image/svg+xml,PD94bWwgdmVyc2lvbj0iMS4wIiBlbmNvZGluZz0idXMtYXNjaWkiIHN0YW5kYWxvbmU9Im5vIj8+PHN2ZyB4bWxucz0iaHR0cDovL3d3dy53My5vcmcvMjAwMC9zdmciIHhtbG5zOnhsaW5rPSJodHRwOi8vd3d3LnczLm9yZy8xOTk5L3hsaW5rIiBjb250ZW50U3R5bGVUeXBlPSJ0ZXh0L2NzcyIgaGVpZ2h0PSIyMzBweCIgcHJlc2VydmVBc3BlY3RSYXRpbz0ibm9uZSIgc3R5bGU9IndpZHRoOjI5NnB4O2hlaWdodDoyMzBweDtiYWNrZ3JvdW5kOiNGRkZGRkY7IiB2ZXJzaW9uPSIxLjEiIHZpZXdCb3g9IjAgMCAyOTYgMjMwIiB3aWR0aD0iMjk2cHgiIHpvb21BbmRQYW49Im1hZ25pZnkiPjxkZWZzLz48Zz48IS0tY2x1c3RlciBQcm9maWwgU2FudD8tLT48ZyBpZD0iY2x1c3Rlcl9Qcm9maWwgU2FudCYjMjMzOyI+PHBhdGggZD0iTTguNSw2IEw5My41LDYgQTMuNzUsMy43NSAwIDAgMSA5Niw4LjUgTDEwMywyNi45ODQ0IEwyODYuNSwyNi45ODQ0IEEyLjUsMi41IDAgMCAxIDI4OSwyOS40ODQ0IEwyODksMjIwLjUgQTIuNSwyLjUgMCAwIDEgMjg2LjUsMjIzIEw4LjUsMjIzIEEyLjUsMi41IDAgMCAxIDYsMjIwLjUgTDYsOC41IEEyLjUsMi41IDAgMCAxIDguNSw2ICIgZmlsbD0ibm9uZSIgc3R5bGU9InN0cm9rZTojMDAwMDAwO3N0cm9rZS13aWR0aDoxLjU7Ii8+PGxpbmUgc3R5bGU9InN0cm9rZTojMDAwMDAwO3N0cm9rZS13aWR0aDoxLjU7IiB4MT0iNiIgeDI9IjEwMyIgeTE9IjI2Ljk4NDQiIHkyPSIyNi45ODQ0Ii8+PHRleHQgZmlsbD0iIzAwMDAwMCIgZm9udC1mYW1pbHk9InNhbnMtc2VyaWYiIGZvbnQtc2l6ZT0iMTQiIGZvbnQtd2VpZ2h0PSJib2xkIiBsZW5ndGhBZGp1c3Q9InNwYWNpbmciIHRleHRMZW5ndGg9Ijg0IiB4PSIxMCIgeT0iMjEuMjM0NCI+UHJvZmlsIFNhbnQmIzIzMzs8L3RleHQ+PC9nPjwhLS1jbGFzcyBEb2N0b3ItLT48ZyBpZD0iZWxlbV9Eb2N0b3IiPjxyZWN0IGNvZGVMaW5lPSIyIiBmaWxsPSIjRjFGMUYxIiBoZWlnaHQ9IjUzLjgyODEiIGlkPSJEb2N0b3IiIHJ4PSIyLjUiIHJ5PSIyLjUiIHN0eWxlPSJzdHJva2U6IzE4MTgxODtzdHJva2Utd2lkdGg6MC41OyIgd2lkdGg9IjEwOCIgeD0iMjIiIHk9IjM5Ii8+PGVsbGlwc2UgY3g9IjM3IiBjeT0iNTcuOTE0MSIgZmlsbD0iI0FERDFCMiIgcng9IjExIiByeT0iMTEiIHN0eWxlPSJzdHJva2U6IzE4MTgxODtzdHJva2Utd2lkdGg6MS4wOyIvPjxwYXRoIGQ9Ik0zNC42MjUsNjIuMTY0MSBMMzQuNjI1LDYzLjkxNDEgTDM5LjU2MjUsNjMuOTE0MSBMMzkuNTYyNSw2Mi4xNjQxIEwzNC42MjUsNjIuMTY0MSBaIE0zNS4zMTI1LDYyLjg1MTYgUTM1LjMxMjUsNjIuODUxNiAzNS4zMTI1LDUzLjY2NDEgTDMzLjU2MjUsNTMuNjY0MSBRMzMuNTYyNSw1My42NjQxIDMzLjU2MjUsNjIuODUxNiBMMzUuMzEyNSw2Mi44NTE2IFogTTM4Ljg3NSw2Mi44NTE2IEw0MC42MjUsNjIuODUxNiBRNDAuNjI1LDYyLjg1MTYgNDAuNjI1LDYwLjAzOTEgTDM4Ljg3NSw2MC4wMzkxIFEzOC44NzUsNjAuMDM5MSAzOC44NzUsNjIuODUxNiBaIE0zOC44NzUsNTMuNjY0MSBRMzguODc1LDUzLjY2NDEgMzguODc1LDU2LjQ3NjYgTDQwLjYyNSw1Ni40NzY2IFE0MC42MjUsNTYuNDc2NiA0MC42MjUsNTMuNjY0MSBMMzguODc1LDUzLjY2NDEgWiBNMzQuNjI1LDU0LjM1MTYgTDM5LjU2MjUsNTQuMzUxNiBMMzkuNTYyNSw1Mi42MDE2IEwzNC42MjUsNTIuNjAxNiBMMzQuNjI1LDU0LjM1MTYgWiAiIGZpbGw9IiMwMDAwMDAiLz48dGV4dCBmaWxsPSIjMDAwMDAwIiBmb250LWZhbWlseT0ic2Fucy1zZXJpZiIgZm9udC1zaXplPSIxMiIgZm9udC1zdHlsZT0iaXRhbGljIiBsZW5ndGhBZGp1c3Q9InNwYWNpbmciIHRleHRMZW5ndGg9IjgwIiB4PSI0OSIgeT0iNTUuMzQzOCI+JiMxNzE7c3RlcmVvdHlwZSYjMTg3OzwvdGV4dD48dGV4dCBmaWxsPSIjMDAwMDAwIiBmb250LWZhbWlseT0ic2Fucy1zZXJpZiIgZm9udC1zaXplPSIxNCIgbGVuZ3RoQWRqdXN0PSJzcGFjaW5nIiB0ZXh0TGVuZ3RoPSI0MiIgeD0iNjgiIHk9IjcwLjA3ODEiPkRvY3RvcjwvdGV4dD48bGluZSBzdHlsZT0ic3Ryb2tlOiMxODE4MTg7c3Ryb2tlLXdpZHRoOjAuNTsiIHgxPSIyMyIgeDI9IjEyOSIgeTE9Ijc2LjgyODEiIHkyPSI3Ni44MjgxIi8+PGxpbmUgc3R5bGU9InN0cm9rZTojMTgxODE4O3N0cm9rZS13aWR0aDowLjU7IiB4MT0iMjMiIHgyPSIxMjkiIHkxPSI4NC44MjgxIiB5Mj0iODQuODI4MSIvPjwvZz48IS0tY2xhc3MgUGF0aWVudC0tPjxnIGlkPSJlbGVtX1BhdGllbnQiPjxyZWN0IGNvZGVMaW5lPSIzIiBmaWxsPSIjRjFGMUYxIiBoZWlnaHQ9IjUzLjgyODEiIGlkPSJQYXRpZW50IiByeD0iMi41IiByeT0iMi41IiBzdHlsZT0ic3Ryb2tlOiMxODE4MTg7c3Ryb2tlLXdpZHRoOjAuNTsiIHdpZHRoPSIxMDgiIHg9IjE2NSIgeT0iMzkiLz48ZWxsaXBzZSBjeD0iMTgwIiBjeT0iNTcuOTE0MSIgZmlsbD0iI0FERDFCMiIgcng9IjExIiByeT0iMTEiIHN0eWxlPSJzdHJva2U6IzE4MTgxODtzdHJva2Utd2lkdGg6MS4wOyIvPjxwYXRoIGQ9Ik0xNzcuNjI1LDYyLjE2NDEgTDE3Ny42MjUsNjMuOTE0MSBMMTgyLjU2MjUsNjMuOTE0MSBMMTgyLjU2MjUsNjIuMTY0MSBMMTc3LjYyNSw2Mi4xNjQxIFogTTE3OC4zMTI1LDYyLjg1MTYgUTE3OC4zMTI1LDYyLjg1MTYgMTc4LjMxMjUsNTMuNjY0MSBMMTc2LjU2MjUsNTMuNjY0MSBRMTc2LjU2MjUsNTMuNjY0MSAxNzYuNTYyNSw2Mi44NTE2IEwxNzguMzEyNSw2Mi44NTE2IFogTTE4MS44NzUsNjIuODUxNiBMMTgzLjYyNSw2Mi44NTE2IFExODMuNjI1LDYyLjg1MTYgMTgzLjYyNSw2MC4wMzkxIEwxODEuODc1LDYwLjAzOTEgUTE4MS44NzUsNjAuMDM5MSAxODEuODc1LDYyLjg1MTYgWiBNMTgxLjg3NSw1My42NjQxIFExODEuODc1LDUzLjY2NDEgMTgxLjg3NSw1Ni40NzY2IEwxODMuNjI1LDU2LjQ3NjYgUTE4My42MjUsNTYuNDc2NiAxODMuNjI1LDUzLjY2NDEgTDE4MS44NzUsNTMuNjY0MSBaIE0xNzcuNjI1LDU0LjM1MTYgTDE4Mi41NjI1LDU0LjM1MTYgTDE4Mi41NjI1LDUyLjYwMTYgTDE3Ny42MjUsNTIuNjAxNiBMMTc3LjYyNSw1NC4zNTE2IFogIiBmaWxsPSIjMDAwMDAwIi8+PHRleHQgZmlsbD0iIzAwMDAwMCIgZm9udC1mYW1pbHk9InNhbnMtc2VyaWYiIGZvbnQtc2l6ZT0iMTIiIGZvbnQtc3R5bGU9Iml0YWxpYyIgbGVuZ3RoQWRqdXN0PSJzcGFjaW5nIiB0ZXh0TGVuZ3RoPSI4MCIgeD0iMTkyIiB5PSI1NS4zNDM4Ij4mIzE3MTtzdGVyZW90eXBlJiMxODc7PC90ZXh0Pjx0ZXh0IGZpbGw9IiMwMDAwMDAiIGZvbnQtZmFtaWx5PSJzYW5zLXNlcmlmIiBmb250LXNpemU9IjE0IiBsZW5ndGhBZGp1c3Q9InNwYWNpbmciIHRleHRMZW5ndGg9IjQ5IiB4PSIyMDcuNSIgeT0iNzAuMDc4MSI+UGF0aWVudDwvdGV4dD48bGluZSBzdHlsZT0ic3Ryb2tlOiMxODE4MTg7c3Ryb2tlLXdpZHRoOjAuNTsiIHgxPSIxNjYiIHgyPSIyNzIiIHkxPSI3Ni44MjgxIiB5Mj0iNzYuODI4MSIvPjxsaW5lIHN0eWxlPSJzdHJva2U6IzE4MTgxODtzdHJva2Utd2lkdGg6MC41OyIgeDE9IjE2NiIgeDI9IjI3MiIgeTE9Ijg0LjgyODEiIHkyPSI4NC44MjgxIi8+PC9nPjwhLS1jbGFzcyBIb3NwaXRhbC0tPjxnIGlkPSJlbGVtX0hvc3BpdGFsIj48cmVjdCBjb2RlTGluZT0iNCIgZmlsbD0iI0YxRjFGMSIgaGVpZ2h0PSI1My44MjgxIiBpZD0iSG9zcGl0YWwiIHJ4PSIyLjUiIHJ5PSIyLjUiIHN0eWxlPSJzdHJva2U6IzE4MTgxODtzdHJva2Utd2lkdGg6MC41OyIgd2lkdGg9IjEwOCIgeD0iMjIiIHk9IjE1MyIvPjxlbGxpcHNlIGN4PSIzNyIgY3k9IjE3MS45MTQxIiBmaWxsPSIjQUREMUIyIiByeD0iMTEiIHJ5PSIxMSIgc3R5bGU9InN0cm9rZTojMTgxODE4O3N0cm9rZS13aWR0aDoxLjA7Ii8+PHBhdGggZD0iTTM0LjYyNSwxNzYuMTY0MSBMMzQuNjI1LDE3Ny45MTQxIEwzOS41NjI1LDE3Ny45MTQxIEwzOS41NjI1LDE3Ni4xNjQxIEwzNC42MjUsMTc2LjE2NDEgWiBNMzUuMzEyNSwxNzYuODUxNiBRMzUuMzEyNSwxNzYuODUxNiAzNS4zMTI1LDE2Ny42NjQxIEwzMy41NjI1LDE2Ny42NjQxIFEzMy41NjI1LDE2Ny42NjQxIDMzLjU2MjUsMTc2Ljg1MTYgTDM1LjMxMjUsMTc2Ljg1MTYgWiBNMzguODc1LDE3Ni44NTE2IEw0MC42MjUsMTc2Ljg1MTYgUTQwLjYyNSwxNzYuODUxNiA0MC42MjUsMTc0LjAzOTEgTDM4Ljg3NSwxNzQuMDM5MSBRMzguODc1LDE3NC4wMzkxIDM4Ljg3NSwxNzYuODUxNiBaIE0zOC44NzUsMTY3LjY2NDEgUTM4Ljg3NSwxNjcuNjY0MSAzOC44NzUsMTcwLjQ3NjYgTDQwLjYyNSwxNzAuNDc2NiBRNDAuNjI1LDE3MC40NzY2IDQwLjYyNSwxNjcuNjY0MSBMMzguODc1LDE2Ny42NjQxIFogTTM0LjYyNSwxNjguMzUxNiBMMzkuNTYyNSwxNjguMzUxNiBMMzkuNTYyNSwxNjYuNjAxNiBMMzQuNjI1LDE2Ni42MDE2IEwzNC42MjUsMTY4LjM1MTYgWiAiIGZpbGw9IiMwMDAwMDAiLz48dGV4dCBmaWxsPSIjMDAwMDAwIiBmb250LWZhbWlseT0ic2Fucy1zZXJpZiIgZm9udC1zaXplPSIxMiIgZm9udC1zdHlsZT0iaXRhbGljIiBsZW5ndGhBZGp1c3Q9InNwYWNpbmciIHRleHRMZW5ndGg9IjgwIiB4PSI0OSIgeT0iMTY5LjM0MzgiPiYjMTcxO3N0ZXJlb3R5cGUmIzE4Nzs8L3RleHQ+PHRleHQgZmlsbD0iIzAwMDAwMCIgZm9udC1mYW1pbHk9InNhbnMtc2VyaWYiIGZvbnQtc2l6ZT0iMTQiIGxlbmd0aEFkanVzdD0ic3BhY2luZyIgdGV4dExlbmd0aD0iNTYiIHg9IjYxIiB5PSIxODQuMDc4MSI+SG9zcGl0YWw8L3RleHQ+PGxpbmUgc3R5bGU9InN0cm9rZTojMTgxODE4O3N0cm9rZS13aWR0aDowLjU7IiB4MT0iMjMiIHgyPSIxMjkiIHkxPSIxOTAuODI4MSIgeTI9IjE5MC44MjgxIi8+PGxpbmUgc3R5bGU9InN0cm9rZTojMTgxODE4O3N0cm9rZS13aWR0aDowLjU7IiB4MT0iMjMiIHgyPSIxMjkiIHkxPSIxOTguODI4MSIgeTI9IjE5OC44MjgxIi8+PC9nPjwhLS1TUkM9W0FxWENwYXZDSnJMRzJZWkFKeWxDS0dYRXAyaXZsNTk5ZVBmQkdJNHY5eDZ1TUM0YkZ4YWFscVoxbmdRdTlCS2VEUi1haVkzTHBhdTFCWHNHTTlBUGNiVTJLenVabHhXV2lvR24xcUQxQkcwMF0tLT48L2c+PC9zdmc+;" vertex="1" parent="1">
            <mxGeometry x="560" y="790" width="296" height="230" as="geometry" />
          </mxCell>
        </UserObject>
        <UserObject label="" plantUmlData="{&#xa;  &quot;data&quot;: &quot;@startuml\ntitle Cycle de Vie d&#39;une Commande\n\n|Commande|\nstart\n:ReÃ§ue;\n:TraitÃ©e;\n:ExpÃ©diÃ©e;\n:LivrÃ©e;\nstop\n\n@enduml&quot;,&#xa;  &quot;format&quot;: &quot;svg&quot;&#xa;}" id="r1eFtCDx-ixWv4gbX7kA-37">
          <mxCell style="shape=image;noLabel=1;verticalAlign=top;aspect=fixed;imageAspect=0;image=data:image/svg+xml,PD94bWwgdmVyc2lvbj0iMS4wIiBlbmNvZGluZz0idXMtYXNjaWkiIHN0YW5kYWxvbmU9Im5vIj8+PHN2ZyB4bWxucz0iaHR0cDovL3d3dy53My5vcmcvMjAwMC9zdmciIHhtbG5zOnhsaW5rPSJodHRwOi8vd3d3LnczLm9yZy8xOTk5L3hsaW5rIiBjb250ZW50U3R5bGVUeXBlPSJ0ZXh0L2NzcyIgaGVpZ2h0PSIzMzBweCIgcHJlc2VydmVBc3BlY3RSYXRpbz0ibm9uZSIgc3R5bGU9IndpZHRoOjIzNHB4O2hlaWdodDozMzBweDtiYWNrZ3JvdW5kOiNGRkZGRkY7IiB2ZXJzaW9uPSIxLjEiIHZpZXdCb3g9IjAgMCAyMzQgMzMwIiB3aWR0aD0iMjM0cHgiIHpvb21BbmRQYW49Im1hZ25pZnkiPjxkZWZzLz48Zz48dGV4dCBmaWxsPSIjMDAwMDAwIiBmb250LWZhbWlseT0ic2Fucy1zZXJpZiIgZm9udC1zaXplPSIxNCIgZm9udC13ZWlnaHQ9ImJvbGQiIGxlbmd0aEFkanVzdD0ic3BhY2luZyIgdGV4dExlbmd0aD0iMTkxIiB4PSIyMCIgeT0iMzMuMjM0NCI+Q3ljbGUgZGUgVmllIGQndW5lIENvbW1hbmRlPC90ZXh0PjxlbGxpcHNlIGN4PSIxMTciIGN5PSI1NS45ODQ0IiBmaWxsPSIjMjIyMjIyIiByeD0iMTAiIHJ5PSIxMCIgc3R5bGU9InN0cm9rZTojMjIyMjIyO3N0cm9rZS13aWR0aDoxLjA7Ii8+PHJlY3QgZmlsbD0iI0YxRjFGMSIgaGVpZ2h0PSIzMi44NDM4IiByeD0iMTIuNSIgcnk9IjEyLjUiIHN0eWxlPSJzdHJva2U6IzE4MTgxODtzdHJva2Utd2lkdGg6MC41OyIgd2lkdGg9IjU0IiB4PSI5MCIgeT0iODUuOTg0NCIvPjx0ZXh0IGZpbGw9IiMwMDAwMDAiIGZvbnQtZmFtaWx5PSJzYW5zLXNlcmlmIiBmb250LXNpemU9IjEyIiBsZW5ndGhBZGp1c3Q9InNwYWNpbmciIHRleHRMZW5ndGg9IjM0IiB4PSIxMDAiIHk9IjEwNy4zMjgxIj5SZSYjMjMxO3VlPC90ZXh0PjxyZWN0IGZpbGw9IiNGMUYxRjEiIGhlaWdodD0iMzIuODQzOCIgcng9IjEyLjUiIHJ5PSIxMi41IiBzdHlsZT0ic3Ryb2tlOiMxODE4MTg7c3Ryb2tlLXdpZHRoOjAuNTsiIHdpZHRoPSI2NiIgeD0iODQiIHk9IjEzOC44MjgxIi8+PHRleHQgZmlsbD0iIzAwMDAwMCIgZm9udC1mYW1pbHk9InNhbnMtc2VyaWYiIGZvbnQtc2l6ZT0iMTIiIGxlbmd0aEFkanVzdD0ic3BhY2luZyIgdGV4dExlbmd0aD0iNDYiIHg9Ijk0IiB5PSIxNjAuMTcxOSI+VHJhaXQmIzIzMztlPC90ZXh0PjxyZWN0IGZpbGw9IiNGMUYxRjEiIGhlaWdodD0iMzIuODQzOCIgcng9IjEyLjUiIHJ5PSIxMi41IiBzdHlsZT0ic3Ryb2tlOiMxODE4MTg7c3Ryb2tlLXdpZHRoOjAuNTsiIHdpZHRoPSI3NCIgeD0iODAiIHk9IjE5MS42NzE5Ii8+PHRleHQgZmlsbD0iIzAwMDAwMCIgZm9udC1mYW1pbHk9InNhbnMtc2VyaWYiIGZvbnQtc2l6ZT0iMTIiIGxlbmd0aEFkanVzdD0ic3BhY2luZyIgdGV4dExlbmd0aD0iNTQiIHg9IjkwIiB5PSIyMTMuMDE1NiI+RXhwJiMyMzM7ZGkmIzIzMztlPC90ZXh0PjxyZWN0IGZpbGw9IiNGMUYxRjEiIGhlaWdodD0iMzIuODQzOCIgcng9IjEyLjUiIHJ5PSIxMi41IiBzdHlsZT0ic3Ryb2tlOiMxODE4MTg7c3Ryb2tlLXdpZHRoOjAuNTsiIHdpZHRoPSI2MCIgeD0iODciIHk9IjI0NC41MTU2Ii8+PHRleHQgZmlsbD0iIzAwMDAwMCIgZm9udC1mYW1pbHk9InNhbnMtc2VyaWYiIGZvbnQtc2l6ZT0iMTIiIGxlbmd0aEFkanVzdD0ic3BhY2luZyIgdGV4dExlbmd0aD0iNDAiIHg9Ijk3IiB5PSIyNjUuODU5NCI+TGl2ciYjMjMzO2U8L3RleHQ+PGVsbGlwc2UgY3g9IjExNyIgY3k9IjMwOC4zNTk0IiBmaWxsPSJub25lIiByeD0iMTEiIHJ5PSIxMSIgc3R5bGU9InN0cm9rZTojMjIyMjIyO3N0cm9rZS13aWR0aDoxLjA7Ii8+PGVsbGlwc2UgY3g9IjExNyIgY3k9IjMwOC4zNTk0IiBmaWxsPSIjMjIyMjIyIiByeD0iNiIgcnk9IjYiIHN0eWxlPSJzdHJva2U6IzIyMjIyMjtzdHJva2Utd2lkdGg6MS4wOyIvPjxsaW5lIHN0eWxlPSJzdHJva2U6IzE4MTgxODtzdHJva2Utd2lkdGg6MS4wOyIgeDE9IjExNyIgeDI9IjExNyIgeTE9IjY1Ljk4NDQiIHkyPSI4NS45ODQ0Ii8+PHBvbHlnb24gZmlsbD0iIzE4MTgxOCIgcG9pbnRzPSIxMTMsNzUuOTg0NCwxMTcsODUuOTg0NCwxMjEsNzUuOTg0NCwxMTcsNzkuOTg0NCIgc3R5bGU9InN0cm9rZTojMTgxODE4O3N0cm9rZS13aWR0aDoxLjA7Ii8+PGxpbmUgc3R5bGU9InN0cm9rZTojMTgxODE4O3N0cm9rZS13aWR0aDoxLjA7IiB4MT0iMTE3IiB4Mj0iMTE3IiB5MT0iMTE4LjgyODEiIHkyPSIxMzguODI4MSIvPjxwb2x5Z29uIGZpbGw9IiMxODE4MTgiIHBvaW50cz0iMTEzLDEyOC44MjgxLDExNywxMzguODI4MSwxMjEsMTI4LjgyODEsMTE3LDEzMi44MjgxIiBzdHlsZT0ic3Ryb2tlOiMxODE4MTg7c3Ryb2tlLXdpZHRoOjEuMDsiLz48bGluZSBzdHlsZT0ic3Ryb2tlOiMxODE4MTg7c3Ryb2tlLXdpZHRoOjEuMDsiIHgxPSIxMTciIHgyPSIxMTciIHkxPSIxNzEuNjcxOSIgeTI9IjE5MS42NzE5Ii8+PHBvbHlnb24gZmlsbD0iIzE4MTgxOCIgcG9pbnRzPSIxMTMsMTgxLjY3MTksMTE3LDE5MS42NzE5LDEyMSwxODEuNjcxOSwxMTcsMTg1LjY3MTkiIHN0eWxlPSJzdHJva2U6IzE4MTgxODtzdHJva2Utd2lkdGg6MS4wOyIvPjxsaW5lIHN0eWxlPSJzdHJva2U6IzE4MTgxODtzdHJva2Utd2lkdGg6MS4wOyIgeDE9IjExNyIgeDI9IjExNyIgeTE9IjIyNC41MTU2IiB5Mj0iMjQ0LjUxNTYiLz48cG9seWdvbiBmaWxsPSIjMTgxODE4IiBwb2ludHM9IjExMywyMzQuNTE1NiwxMTcsMjQ0LjUxNTYsMTIxLDIzNC41MTU2LDExNywyMzguNTE1NiIgc3R5bGU9InN0cm9rZTojMTgxODE4O3N0cm9rZS13aWR0aDoxLjA7Ii8+PGxpbmUgc3R5bGU9InN0cm9rZTojMTgxODE4O3N0cm9rZS13aWR0aDoxLjA7IiB4MT0iMTE3IiB4Mj0iMTE3IiB5MT0iMjc3LjM1OTQiIHkyPSIyOTcuMzU5NCIvPjxwb2x5Z29uIGZpbGw9IiMxODE4MTgiIHBvaW50cz0iMTEzLDI4Ny4zNTk0LDExNywyOTcuMzU5NCwxMjEsMjg3LjM1OTQsMTE3LDI5MS4zNTk0IiBzdHlsZT0ic3Ryb2tlOiMxODE4MTg7c3Ryb2tlLXdpZHRoOjEuMDsiLz48IS0tU1JDPVtBeWFpb0tiTFNBdkMxZjhmZ0dmWGNLMUFsSkdGQTlJVmN2a09idkJBbkxLM096UG01UFNhNWZMbU1HTWI3YnZVY2NoRFBITEliOVhQU2RXYllFYlFLTjF1UEtlY1hFRUpNTE80UFhNTnYxUzAwMDAwXS0tPjwvZz48L3N2Zz4=;" vertex="1" parent="1">
            <mxGeometry x="998" y="781" width="234" height="330" as="geometry" />
          </mxCell>
        </UserObject>
      </root>
    </mxGraphModel>
  </diagram>
</mxfile>
